<?xml version="1.0" encoding="UTF-8"?>
<svg width="50px" height="41px" viewBox="0 0 50 41" version="1.1" xmlns="http://www.w3.org/2000/svg" xmlns:xlink="http://www.w3.org/1999/xlink">
    <!-- Generator: Sketch 46.2 (44496) - http://www.bohemiancoding.com/sketch -->
    <title>application_icon</title>
    <desc>Created with Sketch.</desc>
    <defs></defs>
    <g id="Page-1" stroke="none" stroke-width="1" fill="none" fill-rule="evenodd">
        <g id="Large-desktop-green-parkomatica-b2b-(1200px-or-more)-work" transform="translate(-774.000000, -1807.000000)">
            <g id="3-part" transform="translate(0.000000, 1600.000000)">
                <g id="шаги" transform="translate(760.000000, 190.000000)">
                    <g id="шаг-первый">
                        <g id="Group" transform="translate(14.000000, 17.000000)">
                            <path d="M47.5609756,0 L2.43902439,0 C1.09390244,0 0,1.07159091 0,2.38927739 L0,38.6107226 C0,39.9284091 1.09390244,41 2.43902439,41 L47.5609756,41 C48.9060976,41 50,39.9284091 50,38.6107226 L50,2.38927739 C50,1.07159091 48.9060976,0 47.5609756,0 Z M47.5573171,38.3479021 L2.43902439,38.3479021 L2.43902439,8.36247086 L47.5603659,8.36247086 L47.5573171,38.3479021 Z" id="Shape" fill="#73BD4E" fill-rule="nonzero"></path>
                            <polygon id="Path" fill="#EDF0E9" points="48.1450825 7.05911532 2.77777778 7.05911532 2.77777778 2.40002441 48.1481481 2.40002441"></polygon>
                            <path d="M14.3888889,3.72727273 C15.1555556,3.72727273 15.7777778,4.35298864 15.7777778,5.125 C15.7777778,5.89701136 15.1555556,6.52272727 14.3888889,6.52272727 C13.6222222,6.52272727 13,5.89701136 13,5.125 C13,4.35298864 13.6222222,3.72727273 14.3888889,3.72727273 Z" id="Path" fill="#73BD4E"></path>
                            <path d="M10.3888889,3.72727273 C11.1555556,3.72727273 11.7777778,4.35298864 11.7777778,5.125 C11.7777778,5.89701136 11.1555556,6.52272727 10.3888889,6.52272727 C9.62222222,6.52272727 9,5.89701136 9,5.125 C9,4.35298864 9.62222222,3.72727273 10.3888889,3.72727273 Z" id="Path" fill="#73BD4E"></path>
                            <path d="M6.01851852,3.72727273 C6.78518519,3.72727273 7.40740741,4.35298864 7.40740741,5.125 C7.40740741,5.89701136 6.78518519,6.52272727 6.01851852,6.52272727 C5.25185185,6.52272727 4.62962963,5.89701136 4.62962963,5.125 C4.62962963,4.35298864 5.25185185,3.72727273 6.01851852,3.72727273 Z" id="Path" fill="#73BD4E"></path>
                            <rect id="Rectangle-path" fill="#73BD4E" fill-rule="nonzero" x="5.55555556" y="12.1136364" width="18.5185185" height="2.79545455" rx="1.39772727"></rect>
                            <rect id="Rectangle-path" fill="#73BD4E" fill-rule="nonzero" x="5.55555556" y="23.2954545" width="18.5185185" height="2.79545455" rx="1.39772727"></rect>
                            <rect id="Rectangle-path" fill="#73BD4E" fill-rule="nonzero" x="5.55555556" y="17.7045455" width="24.0740741" height="2.79545455" rx="1.39772727"></rect>
                        </g>
                    </g>
                </g>
            </g>
        </g>
    </g>
</svg>