<?xml version="1.0" encoding="UTF-8"?>
<svg width="50px" height="50px" viewBox="0 0 50 50" version="1.1" xmlns="http://www.w3.org/2000/svg" xmlns:xlink="http://www.w3.org/1999/xlink">
    <!-- Generator: Sketch 46.2 (44496) - http://www.bohemiancoding.com/sketch -->
    <title>arrow_icon</title>
    <desc>Created with Sketch.</desc>
    <defs></defs>
    <g id="Page-1" stroke="none" stroke-width="1" fill="none" fill-rule="evenodd">
        <g id="Large-desktop-green-parkomatica-b2b-(1200px-or-more)-work" transform="translate(-695.000000, -666.000000)">
            <g id="1-part" transform="translate(-317.000000, 100.000000)">
                <g id="arrow" transform="translate(1012.000000, 566.000000)">
                    <g id="arrow_icon" transform="translate(25.000000, 25.000000) rotate(-270.000000) translate(-25.000000, -25.000000) ">
                        <circle id="Oval" stroke="#73BD4E" stroke-width="2" cx="25" cy="25" r="24"></circle>
                        <path d="M34.9063158,25.4509276 C34.8536842,25.5940265 34.7757895,25.7304695 34.6663158,25.845836 L26.2957895,34.668044 C25.8747368,35.110652 25.1936842,35.110652 24.7736842,34.668044 C24.3536842,34.2243268 24.3536842,33.5077235 24.7736842,33.0640062 L31.3715789,26.110957 L16.0526316,26.110957 C15.4715789,26.110957 15,25.6139937 15,25.0016639 C15,24.3893341 15.4715789,23.8923708 16.0526316,23.8923708 L31.3736842,23.8923708 L24.7736842,16.9371031 C24.3536842,16.4933858 24.3536842,15.7756732 24.7736842,15.331956 C25.1936842,14.889348 25.8747368,14.889348 26.2957895,15.331956 L34.6663158,24.154164 C34.7768421,24.2717491 34.8547368,24.4081921 34.9073684,24.5535095 C34.9652632,24.6910619 35,24.8419257 35,25.0016639 C35,25.1625114 34.9642105,25.312266 34.9063158,25.4509276 L34.9063158,25.4509276 Z" id="Shape" fill="#FFFFFF"></path>
                    </g>
                </g>
            </g>
        </g>
    </g>
</svg>