<?xml version="1.0" encoding="UTF-8"?>
<svg width="92px" height="88px" viewBox="0 0 92 88" version="1.1" xmlns="http://www.w3.org/2000/svg" xmlns:xlink="http://www.w3.org/1999/xlink">
    <!-- Generator: Sketch 46.2 (44496) - http://www.bohemiancoding.com/sketch -->
    <title>bill_icon</title>
    <desc>Created with Sketch.</desc>
    <defs>
        <filter x="-2.2%" y="-6.6%" width="104.4%" height="116.2%" filterUnits="objectBoundingBox" id="filter-1">
            <feOffset dx="0" dy="2" in="SourceAlpha" result="shadowOffsetOuter1"></feOffset>
            <feGaussianBlur stdDeviation="2" in="shadowOffsetOuter1" result="shadowBlurOuter1"></feGaussianBlur>
            <feColorMatrix values="0 0 0 0 0   0 0 0 0 0   0 0 0 0 0  0 0 0 0.1 0" type="matrix" in="shadowBlurOuter1" result="shadowMatrixOuter1"></feColorMatrix>
            <feMerge>
                <feMergeNode in="shadowMatrixOuter1"></feMergeNode>
                <feMergeNode in="SourceGraphic"></feMergeNode>
            </feMerge>
        </filter>
    </defs>
    <g id="Page-1" stroke="none" stroke-width="1" fill="none" fill-rule="evenodd">
        <g id="Large-desktop-green-parkomatica-b2b-(1200px-or-more)-work" transform="translate(-186.000000, -1298.000000)">
            <g id="2-part" transform="translate(0.000000, 800.000000)">
                <g id="Group-8" transform="translate(164.000000, 240.000000)">
                    <g id="2-дшту" transform="translate(0.000000, 232.000000)">
                        <g id="нет-штрафов" filter="url(#filter-1)">
                            <g id="bill_icon" transform="translate(26.000000, 28.000000)">
                                <g id="bill">
                                    <path d="M41.6223776,-9.9475983e-14 C41.2390923,-9.9475983e-14 40.8058629,0.15725109 40.5286078,0.356684982 L25.1567069,11.4139194 L13.2434838,11.4139194 C12.2135305,11.4139194 11.3515575,12.4589978 11.3515575,13.3162393 L11.3515575,21.3119277 L0.798156389,28.8914835 C0.308858475,29.2401036 0.0021012679,29.834141 0,30.4371184 L0,77.995116 C9.90423395e-05,78.9911412 0.901343088,79.897336 1.89192626,79.8974359 L81.352829,79.8974359 C82.3434123,79.897336 83.2446559,78.9911412 83.2447552,77.995116 L83.2447552,30.4371184 C83.2426741,29.834141 82.9358964,29.2401036 82.4465989,28.8914835 L71.8931977,21.3119277 L71.8931977,13.3162393 C71.8930984,12.3202141 70.9918547,11.4140193 70.0012715,11.4139194 L58.0880483,11.4139194 L42.7161475,0.356684982 C42.3589064,0.0997162802 42.005663,-9.9475983e-14 41.6223776,-9.9475983e-14 Z" id="Shape" fill="#FFFFFF" fill-rule="nonzero"></path>
                                    <path d="M25.1567069,11.4139194 L13.2434838,11.4139194 C12.2135305,11.4139194 11.3515575,12.4589978 11.3515575,13.3162393 L11.3515575,21.3119277 L11.3515575,34.9175347 L15.1300881,37.638838 L68.12682,37.638838 L71.8931977,34.9175347 L71.8931977,21.3119277 L71.8931977,13.3162393 C71.8930984,12.3202141 70.9918547,11.4140193 70.0012715,11.4139194 L58.0880483,11.4139194 L25.1567069,11.4139194 Z" id="Shape" fill="#FFFFFF" fill-rule="nonzero"></path>
                                    <polygon id="Path" fill="#73BD4E" points="41.6223776 4.22077228 51.6141132 11.4139194 31.6306421 11.4139194"></polygon>
                                    <polygon id="Path" fill="#73BD4E" points="11.3515575 25.9785562 11.3515575 34.8956807 5.14367451 30.4371184"></polygon>
                                    <polygon id="Path" fill="#73BD4E" points="71.8931977 25.9785562 78.1010807 30.4371184 71.8931977 34.8956807"></polygon>
                                    <polygon id="Path" fill="#73BD4E" points="3.78385251 34.1228632 27.6102988 51.2437424 3.78385251 73.5960012"></polygon>
                                    <polygon id="Path" fill="#73BD4E" points="79.4609027 34.1228632 79.4609027 73.5960012 55.6344565 51.2437424"></polygon>
                                    <path d="M30.7438017,53.5027473 L40.5286078,60.5175519 C41.1630236,60.9694565 42.0817316,60.9694565 42.7161475,60.5175519 L52.5009536,53.5027473 L76.5638907,76.0927961 L6.68086459,76.0927961 L30.7438017,53.5027473 Z" id="Path" fill="#73BD4E"></path>
                                    <polygon id="Path" fill="#73BD4E" points="15.13541 15.2185592 68.1093452 15.2185592 68.1093452 37.6302656 41.6223776 56.6534646 15.13541 37.6302656"></polygon>
                                    <g id="Group-9" transform="translate(19.478261, 23.384615)" fill="#FFFFFF">
                                        <path d="M0.65839299,9.26235132 C0.65839299,9.98752651 1.49718691,10.8006803 2.42145589,10.8006803 L22.6966792,10.8006803 C23.6281238,10.8121716 24.4848393,10.0751474 24.4848393,9.26235132 C24.4848393,8.44955521 23.6281238,7.71253412 22.6966792,7.72402236 L2.42145589,7.72402236 C1.40740117,7.72402236 0.65839299,8.53717612 0.65839299,9.26235132 Z" id="Path"></path>
                                        <path d="M0.65839299,1.65307171 C0.65839299,2.3782469 1.49718691,3.19140066 2.42145589,3.19140066 L22.6966792,3.19140066 C23.6281238,3.20289198 24.4848393,2.46586781 24.4848393,1.65307171 C24.4848393,0.840275605 23.6281238,0.103254511 22.6966792,0.114742752 L2.42145589,0.114742752 C1.40740117,0.114742752 0.65839299,0.927896515 0.65839299,1.65307171 Z" id="Path"></path>
                                    </g>
                                </g>
                                <path d="M49.8655336,21.6070769 C49.8655336,21.3949533 49.9422425,21.2093958 50.093159,21.0556846 C50.2444237,20.9016187 50.4275688,20.8230769 50.6370972,20.8230769 L56.9050244,20.8230769 C58.6513617,20.8230769 60.103686,21.2861369 61.258178,22.2131012 C62.4190709,23.145205 62.9993516,24.5084489 62.9993516,26.2937435 C62.9993516,27.494513 62.7248177,28.5183447 62.1747861,29.36298 C61.625391,30.2066381 60.8891999,30.8358009 59.967985,31.248986 C59.050998,31.6602748 58.0297253,31.8657435 56.9050244,31.8657435 L52.4284426,31.8657435 L52.4284426,32.9324101 L57.7258244,32.9324101 C57.9174123,32.9324101 58.0759709,32.9929707 58.1951444,33.1143511 C58.3139543,33.2353612 58.3730244,33.3957983 58.3730244,33.5897434 L58.3730244,34.7550767 C58.3730244,34.9490219 58.3139543,35.109459 58.1951444,35.2304691 C58.0759709,35.3518495 57.9174123,35.4124101 57.7258244,35.4124101 L52.4284426,35.4124101 L52.4284426,37.97241 C52.4284426,38.1845336 52.3517337,38.3700911 52.2008172,38.5238024 C52.0495525,38.6778682 51.8664074,38.75641 51.656879,38.75641 L50.6370972,38.75641 C50.4275688,38.75641 50.2444237,38.6778682 50.093159,38.5238024 C49.9422425,38.3700911 49.8655336,38.1845336 49.8655336,37.97241 L49.8655336,35.4124101 L48.0254609,35.4124101 C47.833873,35.4124101 47.6753143,35.3518495 47.5561408,35.2304691 C47.4373309,35.109459 47.3782609,34.9490219 47.3782609,34.7550767 L47.3782609,33.5897434 C47.3782609,33.3957983 47.4373309,33.2353612 47.5561408,33.1143511 C47.6753143,32.9929707 47.833873,32.9324101 48.0254609,32.9324101 L49.8655336,32.9324101 L49.8655336,31.8657435 L48.0254609,31.8657435 C47.833873,31.8657435 47.6753143,31.8051828 47.5561408,31.6838025 C47.4373309,31.5627923 47.3782609,31.4023552 47.3782609,31.2084101 L47.3782609,30.0430768 C47.3782609,29.8491317 47.4373309,29.6886946 47.5561408,29.5676845 C47.6753143,29.4463041 47.833873,29.3857435 48.0254609,29.3857435 L49.8655336,29.3857435 L49.8655336,21.6070769 Z M56.7806608,29.5857435 C58.012522,29.5857435 58.9632866,29.3133891 59.6299364,28.7649698 C60.3014867,28.2125193 60.6364425,27.3858655 60.6364425,26.2937435 C60.6364425,24.1732869 59.335922,23.1030769 56.7806608,23.1030769 L52.3284426,23.1030769 L52.2284426,23.2030769 L52.2284426,29.4857435 L52.3284426,29.5857435 L56.7806608,29.5857435 Z" id="Combined-Shape" fill="#FFFFFF"></path>
                            </g>
                        </g>
                    </g>
                </g>
            </g>
        </g>
    </g>
</svg>