<?xml version="1.0" encoding="UTF-8"?>
<svg width="50px" height="49px" viewBox="0 0 50 49" version="1.1" xmlns="http://www.w3.org/2000/svg" xmlns:xlink="http://www.w3.org/1999/xlink">
    <!-- Generator: Sketch 46.2 (44496) - http://www.bohemiancoding.com/sketch -->
    <title>call_icon</title>
    <desc>Created with Sketch.</desc>
    <defs></defs>
    <g id="Page-1" stroke="none" stroke-width="1" fill="none" fill-rule="evenodd">
        <g id="Large-desktop-green-parkomatica-b2b-(1200px-or-more)-work" transform="translate(-774.000000, -1906.000000)" fill-rule="nonzero" fill="#73BD4E">
            <g id="3-part" transform="translate(0.000000, 1600.000000)">
                <g id="шаги" transform="translate(760.000000, 190.000000)">
                    <g id="шаг-второй" transform="translate(0.000000, 106.000000)">
                        <g id="Group-15" transform="translate(14.000000, 10.000000)">
                            <g id="Group" transform="translate(25.000000, 24.500000) scale(-1, 1) translate(-25.000000, -24.500000) ">
                                <path d="M49.4252874,18.1011765 C49.4827586,17.7552941 50.2298851,9.62705882 43.5632184,5.36117647 C43.3908046,5.24588235 43.2183908,5.18823529 42.9885057,5.18823529 L37.816092,5.01529412 C37.2988506,5.01529412 36.8965517,5.24588235 36.7241379,5.70705882 L31.954023,16.8329412 C31.8390805,17.1211765 31.8390805,17.4094118 31.8965517,17.64 C31.954023,17.7552941 32.8735632,20.4647059 35.6896552,23.0011765 C34.5402299,25.3647059 30.1724138,32.9741176 20.1724138,36.5482353 C19.3103448,35.28 17.4712644,32.6282353 15.2298851,30.7835294 C14.8850575,30.4952941 14.4252874,30.4376471 14.0229885,30.6105882 L2.87356322,36.0294118 C2.47126437,36.2023529 2.18390805,36.6635294 2.24137931,37.1247059 C2.29885057,38.22 2.4137931,41.9094118 3.04597701,43.1776471 C3.62068966,44.3882353 7.47126437,48.8270588 14.4252874,48.8270588 C16.4942529,48.8270588 18.8505747,48.4235294 21.4942529,47.4435294 C22.7011494,47.1552941 35.4022989,43.5811765 44.3103448,29.8035294 C46.5517241,26.3447059 48.1609195,22.0788235 49.4252874,18.3894118 C49.3678161,18.2741176 49.4252874,18.1588235 49.4252874,18.1011765 Z M38.5057471,7.32117647 L41.6666667,7.43647059 C41.3793103,9.62705882 40.1724138,14.7 35.5747126,19.5423529 C34.8275862,18.62 34.4252874,17.7552941 34.1954023,17.2941176 L38.5057471,7.32117647 Z M14.2528736,33.0894118 C14.7701149,33.6082353 15.2873563,34.1270588 15.7471264,34.6458824 C14.0804598,36.3176471 10.4597701,39.2576471 4.71264368,40.5835294 C4.59770115,39.7764706 4.54022989,38.7388235 4.48275862,37.8164706 L14.2528736,33.0894118 Z M47.1264368,17.7552941 C45.9195402,21.3294118 44.3678161,25.3647059 42.2988506,28.5352941 C33.6781609,41.9094118 20.9195402,45.1376471 20.8045977,45.1952941 C20.7471264,45.1952941 20.6896552,45.1952941 20.6896552,45.2529412 C11.8965517,48.6541176 7.06896552,44.4458824 5.57471264,42.7741176 C11.4942529,41.3329412 15.3448276,38.3352941 17.2413793,36.4329412 C18.1034483,37.5858824 18.6781609,38.5082353 18.6781609,38.5082353 C18.9655172,38.9694118 19.4827586,39.2 20,39.0270588 C33.6781609,34.5882353 37.9885057,23.5776471 38.1609195,23.0588235 C38.3333333,22.5976471 38.2183908,22.0788235 37.816092,21.7329412 C37.5862069,21.56 37.4137931,21.3870588 37.183908,21.2141176 C41.8390805,16.3141176 43.3333333,11.2988235 43.8505747,8.47411765 C47.3563218,11.9329412 47.183908,16.8905882 47.1264368,17.7552941 Z" id="Shape"></path>
                                <path d="M23.1609195,27.6705882 C25.5172414,27.6705882 27.4712644,25.7105882 27.4712644,23.3470588 C27.4712644,20.9835294 25.5747126,19.0235294 23.1609195,19.0235294 C20.7471264,19.0235294 18.8505747,20.9835294 18.8505747,23.3470588 C18.8505747,25.7105882 20.8045977,27.6705882 23.1609195,27.6705882 Z M23.1609195,21.3294118 C24.2528736,21.3294118 25.1724138,22.2517647 25.1724138,23.3470588 C25.1724138,24.4423529 24.3103448,25.3647059 23.1609195,25.3647059 C22.0114943,25.3647059 21.1494253,24.4423529 21.1494253,23.3470588 C21.1494253,22.2517647 22.0689655,21.3294118 23.1609195,21.3294118 Z" id="Shape"></path>
                                <path d="M23.908046,11.0682353 C23.908046,10.4341176 23.3908046,9.91529412 22.7586207,9.91529412 C19.3678161,9.85764706 16.2068966,11.1258824 13.8505747,13.4894118 C11.4367816,15.8529412 10.1149425,18.9658824 10.0574713,22.3670588 C10.0574713,23.0011765 10.5747126,23.52 11.2068966,23.52 C11.2068966,23.52 11.2068966,23.52 11.2068966,23.52 C11.8390805,23.52 12.3563218,23.0011765 12.3563218,22.3670588 C12.4137931,19.6 13.5057471,17.0635294 15.4597701,15.1611765 C17.4137931,13.2588235 20,12.2211765 22.7586207,12.2788235 C23.3333333,12.2211765 23.8505747,11.76 23.908046,11.0682353 Z" id="Shape"></path>
                                <path d="M24.2528736,0.461176471 C24.137931,0.461176471 24.0229885,0.461176471 23.908046,0.461176471 C11.091954,0.461176471 0.517241379,10.8952941 0.344827586,23.8082353 C0.344827586,24.4423529 0.862068966,24.9611765 1.49425287,24.9611765 C1.49425287,24.9611765 1.49425287,24.9611765 1.49425287,24.9611765 C2.12643678,24.9611765 2.64367816,24.4423529 2.64367816,23.8082353 C2.81609195,11.9905882 12.4712644,2.53647059 24.2528736,2.70941176 C24.8850575,2.70941176 25.4022989,2.19058824 25.4022989,1.55647059 C25.4022989,0.98 24.8850575,0.461176471 24.2528736,0.461176471 Z" id="Shape"></path>
                            </g>
                        </g>
                    </g>
                </g>
            </g>
        </g>
    </g>
</svg>