<?xml version="1.0" encoding="UTF-8"?>
<svg width="292px" height="68px" viewBox="0 0 292 68" version="1.1" xmlns="http://www.w3.org/2000/svg" xmlns:xlink="http://www.w3.org/1999/xlink">
    <!-- Generator: Sketch 46.2 (44496) - http://www.bohemiancoding.com/sketch -->
    <title>cardif_logo</title>
    <desc>Created with Sketch.</desc>
    <defs></defs>
    <g id="Page-1" stroke="none" stroke-width="1" fill="none" fill-rule="evenodd">
        <g id="Large-desktop-green-parkomatica-b2b-(1200px-or-more)-work" transform="translate(-986.000000, -2436.000000)" fill-rule="nonzero">
            <g id="4-part" transform="translate(-172.000000, 2400.000000)">
                <g id="Cardif_logo" transform="translate(1158.000000, 36.000000)">
                    <polygon id="path64" fill="#00A770" points="67.7375499 67.5872396 0.820883184 67.5872396 0.820883184 0.412760417 67.7375499 0.412760417"></polygon>
                    <path d="M52.9964456,18.0811979 C48.8670426,20.5184375 47.603162,20.7226042 43.1123908,23.4205208 C45.7273162,20.5713021 46.6352764,19.3590625 48.2532615,16.9765104 C44.1147789,17.1952604 38.0968187,17.6965625 33.802167,18.6517708 C37.5411471,16.6465625 44.9537341,14.4189583 48.8670426,13.8866667 C47.9608983,12.6306771 40.6155003,8.63666667 38.7886844,7.86739583 C44.6032615,8.32130208 51.7107739,10.5015104 55.1555749,12.6179167 C56.5102515,12.1913542 57.9194058,12.1713021 60.4435351,11.9452604 C59.8006993,13.0535937 59.7734605,13.6952604 57.298361,15.3413542 C57.982963,17.1843229 56.3450028,27.3069792 54.9921421,29.9866667 C54.9431849,25.7520312 54.5744804,20.4035937 52.9964456,18.0811979" id="path76" fill="#FFFFFF"></path>
                    <path d="M22.7588287,54.3998958 C20.3854207,53.5157812 18.6766396,52.4876562 16.7953461,50.72125 C17.3582814,49.1608333 18.0011172,47.9413021 19.0507192,46.3790625 C17.1203958,46.6670833 15.6985301,46.8858333 14.0351471,47.2011979 C12.6841023,44.8241146 12.0685053,42.5327083 11.3802714,39.3371354 C11.0116396,42.7204687 10.8718137,45.1394792 11.3475849,47.8301042 C9.82039582,48.2566667 8.7417391,48.6285417 7.48512219,49.1972917 C9.24474905,50.2764583 10.6666147,51.1095312 12.6296247,52.0282812 C13.6864903,54.2996354 14.7760426,55.8363542 16.5483809,57.5881771 C16.1325351,56.0970312 16.0235799,54.9103125 16.1924605,53.3444271 C18.3860923,53.9860938 20.2673859,54.3233333 22.7588287,54.3998958" id="path80" fill="#FFFFFF"></path>
                    <path d="M28.9373162,20.7284375 L28.9373162,20.7284375 C28.1982366,21.6909375 27.3411222,23.4883333 27.1086844,24.3232292 C33.2247043,25.1544792 38.1331371,28.3063021 38.1331371,28.3063021 C32.7834356,27.3547396 29.9651272,27.4732292 27.9694306,27.6536979 C25.9864456,27.8414583 25.5796794,28.0747917 25.5796794,28.0747917 C24.1378386,31.2484896 23.2716446,36.6990104 23.2716446,36.6990104 C22.2983112,34.345625 20.8927889,29.6279167 20.8927889,29.6279167 C18.1943311,31.0753125 11.9875152,36.9359896 11.9875152,36.9359896 C15.3996297,30.0745313 18.8625899,26.9536979 18.8625899,26.9536979 C17.6713461,25.7414583 14.5461471,25.13625 12.2599033,25.0359896 C13.4475152,24.5492708 16.4909978,23.9823438 18.8299033,23.8747917 C21.1706247,23.8055208 22.5870426,23.9386667 22.5870426,23.9386667 C24.675351,22.2852813 27.8441321,20.89075 28.9373162,20.7285104" id="path84" fill="#FFFFFF"></path>
                    <path d="M35.4250623,50.1470312 C34.3464056,51.6163021 33.4166543,52.7702083 32.2181469,54.1155208 C30.162525,54.6933854 28.519117,54.9103125 26.512525,54.9103125 C27.743719,55.5483333 28.9367787,55.9293229 30.2224503,56.1991146 C28.9367787,57.3694271 27.8508583,58.1988542 26.603321,58.9954687 C28.6952613,58.4978125 31.4445648,57.6082292 33.4911071,56.3923437 C34.5606842,56.4341979 35.5594404,56.3649271 36.2930722,56.2191667 C36.1024006,55.5957292 35.9861817,55.1327083 35.8300125,54.3233333 C37.7567041,52.8248958 39.1567787,51.4686458 40.7602364,49.8389583 C39.0532712,51.0329687 37.5805598,51.9261979 35.6048384,52.8631771 C35.5195628,51.9480729 35.4704603,51.1751562 35.4250623,50.1470313" id="path88" fill="#FFFFFF"></path>
                    <path d="M92.1965449,45.7124146 C94.4228633,45.7124146 96.8525648,46.5181438 96.8525648,48.5743937 C96.8525648,49.6936646 95.8955747,50.7017375 94.4700772,51.193925 C96.3622663,51.8848104 97.4554503,52.9822063 97.4554503,54.4131958 C97.4554503,56.9197062 94.4228633,57.7691854 91.5718683,57.7691854 L85.0436344,57.7691854 C85.1998036,56.2033 85.2415698,53.9447062 85.2415698,51.4400187 C85.2415698,49.7848104 85.221522,47.2783 85.0636096,45.7124146 L92.1965449,45.7124146 L92.1965449,45.7124146 Z M90.367913,47.2327271 C89.7904503,47.2327271 89.2075399,47.2782271 88.9188086,47.3238729 C88.8534354,48.8897583 88.8297558,49.6517375 88.8297558,51.4400188 C88.8297558,53.6092896 88.8297558,54.4131958 88.9188086,56.137675 L90.6566444,56.137675 C92.7086344,56.137675 93.6874155,55.5324667 93.6874155,54.2801229 C93.6874155,52.8947063 92.4199031,52.2457479 90.7474404,52.2457479 L89.7450523,52.2457479 L90.4351021,50.4337688 L91.1705499,50.4337688 C92.0167688,50.4337688 93.1535349,49.9853313 93.1535349,48.8897583 C93.1535349,47.7267375 92.1057489,47.2327271 90.367913,47.2327271 L90.367913,47.2327271 Z" id="path92" fill="#FFFFFF"></path>
                    <path d="M110.691868,45.7124146 C110.579281,47.0777792 110.512092,50.2533 110.512092,51.4400188 C110.512092,52.5355917 110.537515,56.1158 110.691868,57.7691854 L107.862664,57.7691854 L103.313784,51.0371542 C102.937888,50.4993938 102.669132,49.9853312 102.558361,49.3801229 L102.558361,53.206425 C102.558361,54.6592896 102.603686,56.7191854 102.734505,57.7691854 L99.5057988,57.7691854 C99.70555,55.9353312 99.729157,52.4918417 99.729157,51.4400187 C99.729157,50.3006958 99.660152,47.0777792 99.5729879,45.7124146 L103.248411,45.7124146 L107.081819,51.9777792 C107.283386,52.2894979 107.350575,52.4462687 107.435923,52.7160604 L107.435923,45.7124146 L110.691868,45.7124146 L110.691868,45.7124146 Z" id="path96" fill="#FFFFFF"></path>
                    <path d="M119.449515,45.7124146 C122.058993,45.7124146 125.200535,46.4525187 125.200535,49.24705 C125.200535,51.7079875 122.970585,52.9384562 118.445311,52.9384562 C118.180187,52.9384562 117.442923,52.9384562 117.244988,52.9165812 C117.330409,54.5918417 117.310361,56.6280396 117.421132,57.7691854 L113.476953,57.7691854 C113.633122,56.1158 113.67852,53.3868937 113.67852,51.4400187 C113.67852,49.7173625 113.633195,46.8517375 113.476953,45.7124146 L119.449515,45.7124146 L119.449515,45.7124146 Z M117.28857,47.3894979 C117.28857,48.175175 117.244988,48.9809042 117.244988,49.7629354 C117.244988,50.3408 117.265035,50.7874146 117.28857,51.2176229 C117.421059,51.2358521 118.045809,51.2358521 118.445311,51.2358521 C119.716455,51.2358521 121.477898,50.8803833 121.477898,49.24705 C121.477898,47.6574667 119.672873,47.3658 118.314565,47.3658 C118.132973,47.3658 117.46653,47.3658 117.28857,47.389425 L117.28857,47.3894979 Z" id="path100" fill="#FFFFFF"></path>
                    <path d="M137.631774,45.7124146 C140.241252,45.7124146 143.382794,46.4525187 143.382794,49.24705 C143.382794,51.7079875 141.15466,52.9384562 136.629386,52.9384562 C136.362446,52.9384562 135.628814,52.9384562 135.429062,52.9165812 C135.51797,54.5918417 135.494436,56.6280396 135.605207,57.7691854 L131.661028,57.7691854 C131.815381,56.1158 131.860779,53.3868937 131.860779,51.4400187 C131.860779,49.7173625 131.815454,46.8517375 131.661028,45.7124146 L137.631774,45.7124146 L137.631774,45.7124146 Z M135.470829,47.3894979 C135.470829,48.175175 135.429135,48.9809042 135.429135,49.7629354 C135.429135,50.3408 135.449038,50.7874146 135.470829,51.2176229 C135.605207,51.2358521 136.229883,51.2358521 136.629386,51.2358521 C137.90053,51.2358521 139.661973,50.8803833 139.661973,49.24705 C139.661973,47.6574667 137.855132,47.3658 136.49864,47.3658 C136.318863,47.3658 135.650605,47.3658 135.470829,47.389425 L135.470829,47.3894979 Z" id="path104" fill="#FFFFFF"></path>
                    <path d="M150.392987,45.7124146 C150.837888,47.1434042 154.803858,55.8241333 155.719082,57.7691854 L151.774888,57.7691854 C151.618734,57.3006958 151.306395,56.6517375 150.727117,55.1296021 C150.124231,55.1059771 149.501371,55.1059771 148.678759,55.1059771 C147.874306,55.1059771 147.295027,55.1296021 146.646744,55.1533729 C146.292639,56.1377479 145.97847,56.9197792 145.689739,57.7692583 L142.261281,57.7692583 C142.92954,56.2726438 146.870102,47.6374875 147.585575,45.7124875 L150.392987,45.7124875 L150.392987,45.7124146 Z M150.058858,53.2975708 C149.592167,52.1309042 148.943883,50.6798625 148.633346,49.6736125 C148.299217,50.7017375 147.585575,52.2894979 147.229654,53.2975708 C147.674555,53.31755 148.275624,53.3413208 148.678744,53.3413208 C149.23443,53.3413208 149.524963,53.31755 150.058858,53.2975708 L150.058858,53.2975708 Z" id="path108" fill="#FFFFFF"></path>
                    <path d="M163.097341,45.7124146 C165.72861,45.7124146 168.870152,46.6530396 168.870152,49.4493937 C168.870152,50.9478312 167.756993,52.0215292 166.017341,52.7160604 C166.373261,53.3413208 169.293261,57.143925 169.87254,57.7691854 L165.57244,57.7691854 C164.813386,56.3163208 163.366097,53.8116333 161.9406,51.6842896 C163.654828,51.9066854 165.149331,51.0809042 165.149331,49.4275187 C165.149331,47.8379354 163.320699,47.3658 162.429082,47.3658 C162.02958,47.3658 161.272341,47.3658 161.003585,47.389425 C160.938212,48.8659875 160.912789,50.6342167 160.912789,51.4399458 C160.912789,52.4917687 160.912789,55.9352583 161.114356,57.7691125 L157.104804,57.7691125 C157.306371,55.9808312 157.349953,53.8553104 157.349953,51.4399458 C157.349953,49.4037479 157.326419,46.9428104 157.148386,45.7123417 L163.097341,45.7123417 L163.097341,45.7124146 Z" id="path112" fill="#FFFFFF"></path>
                    <path d="M175.399112,45.7124146 C175.311948,47.0777792 175.241127,50.3006958 175.241127,51.4582479 C175.241127,52.5355917 175.241127,56.1158 175.399112,57.7691854 L171.433142,57.7691854 C171.632893,55.9353312 171.6565,52.4918417 171.6565,51.4582479 C171.6565,50.3225708 171.587495,47.0777792 171.500331,45.7124146 L175.399112,45.7124146 Z" id="path116" fill="#FFFFFF"></path>
                    <path d="M185.139172,45.7124146 C187.363674,45.7124146 189.797007,46.5181438 189.797007,48.5743937 C189.797007,49.6936646 188.838201,50.7017375 187.409072,51.193925 C189.306709,51.8848104 190.398077,52.9822063 190.398077,54.4131958 C190.398077,56.9197062 187.363674,57.7691854 184.510863,57.7691854 L177.984445,57.7691854 C178.140614,56.2033 178.184196,53.9447062 178.184196,51.4400187 C178.184196,49.7848104 178.162405,47.2783 178.006236,45.7124146 L185.139172,45.7124146 L185.139172,45.7124146 Z M183.312356,47.2327271 C182.729445,47.2327271 182.151982,47.2782271 181.861435,47.3238729 C181.796062,48.8897583 181.770639,49.6517375 181.770639,51.4400188 C181.770639,53.6092896 181.770639,54.4131958 181.861435,56.137675 L183.599271,56.137675 C185.651261,56.137675 186.630042,55.5324667 186.630042,54.2801229 C186.630042,52.8947063 185.360714,52.2457479 183.688251,52.2457479 L182.687679,52.2457479 L183.375913,50.4337688 L184.113177,50.4337688 C184.95758,50.4337688 186.094346,49.9853313 186.094346,48.8897583 C186.094346,47.7267375 185.050191,47.2327271 183.312356,47.2327271 L183.312356,47.2327271 Z" id="path120" fill="#FFFFFF"></path>
                    <path d="M198.976848,45.7124146 C199.423565,47.1434042 203.389535,55.8241333 204.302928,57.7691854 L200.360565,57.7691854 C200.202594,57.3006958 199.88844,56.6517375 199.310978,55.1296021 C198.709908,55.1059771 198.085231,55.1059771 197.258987,55.1059771 C196.458167,55.1059771 195.878888,55.1296021 195.23242,55.1533729 C194.8765,56.1377479 194.564162,56.9197792 194.273614,57.7692583 L190.843341,57.7692583 C191.511599,56.2726438 195.455779,47.6374875 196.169435,45.7124875 L198.976848,45.7124875 L198.976848,45.7124146 Z M198.640903,53.2975708 C198.174197,52.1309042 197.527744,50.6798625 197.215405,49.6736125 C196.883092,50.7017375 196.169435,52.2894979 195.8135,53.2975708 C196.256599,53.31755 196.859485,53.3413208 197.258987,53.3413208 C197.81646,53.3413208 198.108838,53.31755 198.640903,53.2975708 L198.640903,53.2975708 Z" id="path124" fill="#FFFFFF"></path>
                    <path d="M210.496495,45.3992375 C212.036396,45.3992375 213.527266,45.6234562 214.466097,45.9133 L214.466097,48.9812687 C213.151371,48.2192896 211.85662,47.5721542 210.140575,47.5721542 C208.78045,47.5721542 208.693286,48.1062687 208.693286,48.5091333 C208.693286,50.5453312 215.533858,50.5653833 215.533858,54.2130396 C215.533858,56.5864771 213.327515,58.0830917 209.650276,58.0830917 C208.00142,58.0830917 206.441545,57.747675 205.371968,57.3666854 L205.371968,54.4372583 C207.890649,55.6203312 209.227167,56.0013208 210.385724,56.0013208 C211.322739,56.0013208 212.012789,55.5784042 212.012789,54.772675 C212.012789,52.4703312 205.192192,52.6927271 205.192192,48.7771021 C205.192192,46.6297062 207.333162,45.3992375 210.496495,45.3992375" id="path128" fill="#FFFFFF"></path>
                    <path d="M234.956405,51.9076042 C234.889144,53.0943229 234.823771,55.6008333 234.776615,57.0336458 C233.485495,57.7044792 231.455311,58.0836458 229.495918,58.0836458 C225.039664,58.0836458 222.188655,55.2635937 222.188655,51.7982292 C222.188655,48.1505729 225.172212,45.3997917 230.05159,45.3997917 C231.16658,45.3997917 232.839028,45.5784375 234.021206,45.8682813 L233.153196,48.2435417 C232.325137,47.7258333 230.945037,47.3010937 230.009838,47.3010937 C227.200609,47.3010937 226.196405,49.8057812 226.196405,51.8201042 C226.196405,55.1979687 228.003246,56.2917187 230.031629,56.2917187 C230.276779,56.2917187 231.057624,56.2734896 231.300943,56.2024687 C231.300943,54.7496042 231.279152,52.893875 231.166565,51.9076771 L234.956391,51.9076771 L234.956405,51.9076042 Z" id="path132" fill="#FFFFFF"></path>
                    <path d="M243.269863,45.7124146 C245.8975,45.7124146 249.039042,46.6530396 249.039042,49.4493937 C249.039042,50.9478312 247.924067,52.0215292 246.186231,52.7160604 C246.545784,53.3413208 249.462152,57.143925 250.043246,57.7691854 L245.741331,57.7691854 C244.984092,56.3163208 243.534988,53.8116333 242.107674,51.6842896 C243.825535,51.9066854 245.318221,51.0809042 245.318221,49.4275187 C245.318221,47.8379354 243.491406,47.3658 242.601605,47.3658 C242.200286,47.3658 241.439416,47.3658 241.172475,47.389425 C241.107102,48.8659875 241.085311,50.6342167 241.085311,51.4399458 C241.085311,52.4917687 241.085311,55.9352583 241.283246,57.7691125 L237.27551,57.7691125 C237.473445,55.9808312 237.517027,53.8553104 237.517027,51.4399458 C237.517027,49.4037479 237.495236,46.9428104 237.319092,45.7123417 L243.269863,45.7123417 L243.269863,45.7124146 Z" id="path136" fill="#FFFFFF"></path>
                    <path d="M257.21741,58.10625 C253.472982,58.10625 250.667385,55.5322917 250.667385,51.7533854 C250.667385,47.9507812 253.472982,45.3986979 257.21741,45.3986979 C260.940047,45.3986979 263.74746,47.9507812 263.74746,51.7533854 C263.74746,55.5322917 260.940047,58.10625 257.21741,58.10625 M257.21741,46.9427083 C255.479575,46.9427083 254.388206,48.6434896 254.388206,51.7533854 C254.388206,54.8614583 255.479575,56.5166667 257.21741,56.5166667 C258.933455,56.5166667 260.003032,54.8614583 260.003032,51.7533854 C260.003032,48.6434896 258.933455,46.9427083 257.21741,46.9427083" id="path140" fill="#FFFFFF"></path>
                    <path d="M269.318878,45.7124146 C269.249873,46.5181437 269.229825,47.3475708 269.229825,48.1952271 L269.229825,53.9447062 C269.229825,55.5124146 269.720124,56.4275187 271.254577,56.4275187 C272.59291,56.4275187 273.909452,55.8915812 273.909452,53.4288208 L273.909452,47.5881958 C273.909452,46.3631958 273.885918,46.2283 273.798754,45.7124146 L277.11644,45.7124146 C276.985694,46.7642375 276.985694,48.7311646 276.985694,50.6798625 L276.985694,54.1014771 C276.985694,56.8741333 275.044475,58.0827271 271.212883,58.0827271 C267.737212,58.0827271 265.596241,57.3444458 265.596241,53.9210083 L265.596241,49.5150187 C265.596241,48.3975708 265.550916,46.5618937 265.420097,45.7124146 L269.318878,45.7124146 L269.318878,45.7124146 Z" id="path144" fill="#FFFFFF"></path>
                    <path d="M285.429898,45.7124146 C288.037575,45.7124146 291.179117,46.4525187 291.179117,49.24705 C291.179117,51.7079875 288.950982,52.9384562 284.427525,52.9384562 C284.160584,52.9384562 283.423321,52.9384562 283.22357,52.9165812 C283.314366,54.5918417 283.292575,56.6280396 283.401515,57.7691854 L279.459152,57.7691854 C279.615321,56.1158 279.658918,53.3868937 279.658918,51.4400187 C279.658918,49.7173625 279.615336,46.8517375 279.459152,45.7124146 L285.429898,45.7124146 L285.429898,45.7124146 Z M283.268953,47.3894979 C283.268953,48.175175 283.223628,48.9809042 283.223628,49.7629354 C283.223628,50.3408 283.247307,50.7874146 283.268953,51.2176229 C283.401588,51.2358521 284.026192,51.2358521 284.42751,51.2358521 C285.696839,51.2358521 287.458281,50.8803833 287.458281,49.24705 C287.458281,47.6574667 285.653257,47.3658 284.291316,47.3658 C284.113356,47.3658 283.445097,47.3658 283.268953,47.389425 L283.268953,47.3894979 Z" id="path148" fill="#FFFFFF"></path>
                    <path d="M105.562445,15.2338021 C104.100629,14.3679167 102.304684,13.6551562 99.9803061,13.6551562 C93.161525,13.6551562 90.8026444,19.1476042 90.8026444,23.7705208 C90.8026444,30.2017708 94.735928,33.5085417 100.01844,33.5085417 C103.314336,33.5085417 105.78762,31.9681771 107.997595,30.0121875 L108.035802,35.5757292 C105.787692,36.4780729 103.016598,37.2655729 98.8581399,37.2655729 C89.3409011,37.2655729 83.3846822,31.2554167 83.3846822,23.6957813 C83.3846822,15.7241667 89.6768464,9.89265625 100.054831,9.89265625 C102.491797,9.89265625 104.850677,10.27 107.136921,10.8332813 L105.562518,15.2338021 L105.562445,15.2338021 Z" id="path152" fill="#FFFFFF"></path>
                    <path d="M127.852679,10.4192896 C128.865963,13.1263208 137.482505,32.3817896 139.505441,36.7440292 L132.276261,36.7440292 C131.864048,35.5409042 131.001485,33.3606958 129.875615,30.5406437 C128.37748,30.5041854 126.843028,30.4623312 124.705689,30.4623312 C122.720888,30.4623312 121.222754,30.5041854 119.49763,30.5406437 C118.676834,32.7573104 118.001311,34.7880396 117.402058,36.7440292 L111.106261,36.7440292 C112.604396,33.4700708 121.41161,14.2929875 122.797157,10.4192896 L127.852679,10.4192896 L127.852679,10.4192896 Z M128.491883,27.0807479 C126.768575,22.94455 125.266809,19.4062687 124.743824,18.1666854 C123.545316,20.7242375 122.234222,23.73205 120.846859,27.0807479 C121.972729,27.1172062 123.508998,27.1554146 124.743824,27.1554146 C125.944147,27.1554146 127.215291,27.1170604 128.491883,27.0807479 L128.491883,27.0807479 Z" id="path156" fill="#FFFFFF"></path>
                    <path d="M154.632973,10.4192896 C160.140659,10.4192896 166.696132,11.9633 166.696132,18.0536646 C166.696132,21.4752792 164.707699,23.7703312 160.778047,24.9734562 C161.337351,26.1018417 167.671281,35.7633 168.719067,36.7440292 L160.890634,36.7440292 C159.167326,33.4700708 155.270361,26.8547062 152.422998,22.5690292 C152.909664,22.6801542 153.623321,22.7549667 154.445933,22.7549667 C156.732177,22.7549667 159.95362,21.0997583 159.95362,18.0536646 C159.95362,14.2547062 155.381132,13.5765812 153.09852,13.5765812 C151.936331,13.5765812 150.81046,13.6548937 150.251157,13.7297062 C150.100435,17.0000187 150.024167,21.0997583 150.024167,22.94455 C150.024167,25.2742375 150.024167,33.0580917 150.436381,36.7440292 L143.132749,36.7440292 C143.505013,33.0963729 143.579465,28.3950708 143.579465,22.94455 C143.579465,18.3526229 143.54489,12.8619979 143.207202,10.4192896 L154.632973,10.4192896 Z" id="path160" fill="#FFFFFF"></path>
                    <path d="M182.48447,10.4192896 C193.536162,10.4192896 197.769072,16.2489771 197.769072,23.5424667 C197.769072,31.0656437 193.646933,36.7440292 182.07044,36.7440292 L172.329843,36.7440292 C172.705739,33.2075708 172.705739,28.3567896 172.705739,22.9810083 C172.705739,20.4234562 172.705739,13.8427271 172.329843,10.4192896 L182.48447,10.4192896 Z M179.410117,13.7297062 C179.261212,15.4578312 179.223077,19.9330917 179.223077,22.9810083 C179.223077,26.816425 179.223077,29.8242375 179.373799,33.3971542 C179.749694,33.4336125 180.347132,33.510175 181.246013,33.510175 C187.578127,33.510175 190.877654,31.51955 190.877654,23.4312687 C190.877654,15.7239771 187.503674,13.5401229 181.095291,13.691425 L179.410117,13.7297792 L179.410117,13.7297062 Z" id="path164" fill="#FFFFFF"></path>
                    <path d="M209.80845,10.4192896 C209.585092,13.4653833 209.436186,20.3833521 209.436186,22.9810083 C209.436186,25.2742375 209.472505,33.0963729 209.80845,36.7440292 L202.544769,36.7440292 C202.913386,33.0963729 202.953351,25.2742375 202.953351,22.9810083 C202.953351,20.4234562 202.802629,13.4653833 202.617405,10.4192896 L209.80845,10.4192896 Z" id="path168" fill="#FFFFFF"></path>
                    <path d="M236.054122,10.4192896 L236.054122,14.216425 C233.991236,14.1051542 228.857629,13.9521021 227.137953,13.9521021 C225.861361,13.9521021 224.437679,13.9521021 222.975863,14.0670187 C222.903226,16.6245708 222.903226,19.7472271 222.86502,21.7761333 L232.008179,21.6266542 L232.008179,25.7263937 L222.86502,25.34905 C222.903226,28.695925 222.939545,33.8839458 223.277233,36.7441021 L215.935467,36.7441021 C216.380368,33.0964458 216.380368,25.2743104 216.380368,22.9810812 C216.380368,20.4235292 216.19696,13.4654562 215.968154,10.4193625 L236.054049,10.4193625 L236.054122,10.4192896 Z" id="path172" fill="#FFFFFF"></path>
                </g>
            </g>
        </g>
    </g>
</svg>