<?xml version="1.0" encoding="UTF-8"?>
<svg width="22px" height="22px" viewBox="0 0 22 22" version="1.1" xmlns="http://www.w3.org/2000/svg" xmlns:xlink="http://www.w3.org/1999/xlink">
    <!-- Generator: Sketch 46.2 (44496) - http://www.bohemiancoding.com/sketch -->
    <title>close_icon</title>
    <desc>Created with Sketch.</desc>
    <defs>
        <polygon id="path-1" points="0 0.000106024096 0 22 21.7879518 22 21.7879518 0.000106024096"></polygon>
    </defs>
    <g id="Page-1" stroke="none" stroke-width="1" fill="none" fill-rule="evenodd">
        <g id="заказ-звонка-заполнение-+-button-pressed" transform="translate(-918.000000, -180.000000)">
            <g id="форма-взонка" transform="translate(480.000000, 160.000000)">
                <g id="close_icon" transform="translate(438.000000, 20.000000)">
                    <mask id="mask-2" fill="white">
                        <use xlink:href="#path-1"></use>
                    </mask>
                    <g id="Clip-2"></g>
                    <path d="M21.3637494,19.4555277 L12.8818217,11.000106 L21.3372434,2.54468434 L21.3637494,2.51817831 C21.8411229,1.98805783 21.8411229,1.16637108 21.3372434,0.689262651 C21.0721831,0.42420241 20.7278699,0.291672289 20.3565205,0.291672289 C20.0119422,0.291672289 19.6938699,0.450708434 19.4555807,0.689262651 L10.999894,9.14468434 L2.27941205,0.397696386 C2.01435181,0.132636145 1.66977349,0.000106024096 1.29868916,0.000106024096 C0.954110843,0.000106024096 0.636038554,0.159142169 0.397484337,0.397696386 C0.15893012,0.662756627 -0.000106024096,1.00706988 0.0264,1.35191325 C0.0264,1.69649157 0.185701205,2.01456386 0.423990361,2.25311807 L9.14447229,11.000106 L0.397484337,19.747094 C0.132424096,20.0121542 -0.000106024096,20.3564675 -0.000106024096,20.7278169 C-0.000106024096,21.0723952 0.15893012,21.3904675 0.397484337,21.6287566 C0.583291566,21.7880578 0.874592771,22.000106 1.32519518,22.000106 C1.80230361,22.000106 2.09386988,21.7880578 2.27941205,21.6287566 L11.0264,12.8820337 L19.4818217,21.3374554 C19.6676289,21.5229976 19.9589301,21.7085398 20.4360386,21.7085398 C20.913412,21.7085398 21.2047133,21.4962265 21.3905205,21.3374554 C21.6555807,21.0723952 21.7881108,20.7278169 21.7881108,20.3564675 C21.7613398,20.0121542 21.6288096,19.6938169 21.3637494,19.4555277" id="Fill-1" fill="#73BD4E" mask="url(#mask-2)"></path>
                </g>
            </g>
        </g>
    </g>
</svg>