<?xml version="1.0" encoding="UTF-8"?>
<svg width="54px" height="54px" viewBox="0 0 54 54" version="1.1" xmlns="http://www.w3.org/2000/svg" xmlns:xlink="http://www.w3.org/1999/xlink">
    <!-- Generator: Sketch 46.2 (44496) - http://www.bohemiancoding.com/sketch -->
    <title>installation_icon</title>
    <desc>Created with Sketch.</desc>
    <defs></defs>
    <g id="Page-1" stroke="none" stroke-width="1" fill="none" fill-rule="evenodd">
        <g id="Large-desktop-green-parkomatica-b2b-(1200px-or-more)-work" transform="translate(-772.000000, -2177.000000)" stroke="#73BD4E" stroke-width="0.5" fill="#73BD4E" fill-rule="nonzero">
            <g id="3-part" transform="translate(0.000000, 1600.000000)">
                <g id="шаги" transform="translate(760.000000, 190.000000)">
                    <g id="шаг-четвертый" transform="translate(0.000000, 374.000000)">
                        <g id="installation" transform="translate(12.000000, 13.000000)">
                            <path d="M12.4787559,16.7874799 C12.4834754,18.6450022 13.6825098,20.2887054 15.4498557,20.8604291 C15.829442,20.989578 16.0605328,21.3736777 15.9968156,21.7695398 C15.9330984,22.1654019 15.5931539,22.4575879 15.1922142,22.4611036 C15.1045281,22.4605051 15.0175189,22.445695 14.9345727,22.4172495 C12.2677744,21.5460841 10.5735956,18.9284333 10.8710424,16.1387488 C11.1684893,13.3490642 13.3765128,11.1474856 16.1670421,10.8582074 C18.9575713,10.5689291 21.5702364,12.2707745 22.4335845,14.9401261 C22.5427371,15.3615701 22.304482,15.7950542 21.8901854,15.9287927 C21.4758888,16.0625312 21.0291509,15.8501688 20.8712904,15.4444482 C20.2272063,13.4227633 18.2041052,12.17368 16.10812,12.503618 C14.0121348,12.833556 12.4706047,14.6437631 12.4787559,16.7655529 L12.4787559,16.7874799 Z M13.8437077,28.0963549 C13.9130826,27.8891886 13.8971609,27.6629301 13.7994569,27.4675211 C13.701753,27.2721122 13.5303001,27.1236197 13.3229429,27.0548201 C12.636161,26.8326025 11.9732468,26.5424613 11.344037,26.1887017 C11.0673757,26.0289582 10.7232308,26.0439211 10.4614779,26.2270741 L8.61413362,27.5481787 C8.2561721,27.801977 7.76728784,27.760271 7.45748779,27.449507 L6.11446301,26.1174388 C5.80370059,25.8076372 5.76199482,25.3187504 6.0157918,24.960787 L7.32592618,23.096988 C7.5090782,22.8352337 7.52404102,22.4910871 7.36429831,22.2144243 C6.88733616,21.4016447 6.51875951,20.5299564 6.26795156,19.6215509 C6.18797191,19.3118491 5.93565123,19.0766337 5.62110697,19.018557 L3.37907785,18.6238702 C2.94737869,18.5490682 2.63247252,18.1739574 2.63356206,17.7358247 L2.63356206,15.8391351 C2.62792951,15.393347 2.94985248,15.0107699 3.39004132,14.9401261 L5.62110697,14.5564028 C5.93628922,14.50113 6.19077858,14.2680251 6.27343329,13.9588907 C6.52420787,13.0487371 6.89277349,12.1752321 7.36978005,11.3605355 C7.52952275,11.0838727 7.51455993,10.7397261 7.33140791,10.4779719 L6.02127354,8.61417279 C5.76747656,8.25620943 5.80918232,7.76732266 6.11994474,7.45752101 L7.46296952,6.11448932 C7.77276958,5.8037253 8.26165383,5.76201932 8.61961535,6.01581761 L10.4834048,7.32595872 C10.7451578,7.50911169 11.0893026,7.52407458 11.365964,7.36433105 C12.1787394,6.88736645 13.0504232,6.5187879 13.9588241,6.26797866 C14.2663931,6.18616901 14.4991311,5.9342128 14.556333,5.62113074 L14.9400544,3.39005361 C15.014856,2.95835223 15.3899649,2.64344444 15.8280953,2.64453398 L17.7302569,2.64453398 C18.1683873,2.64344444 18.5434961,2.95835223 18.6182978,3.39005361 L19.0184643,5.62113074 C19.0737368,5.93631461 19.3068405,6.19080528 19.6159733,6.27346042 C20.5243742,6.52426966 21.396058,6.89284821 22.2088334,7.36981282 C22.4854948,7.52955634 22.8296396,7.51459345 23.0913926,7.33144048 L24.955182,6.02129937 C25.3131436,5.76750108 25.8020278,5.80920706 26.1118279,6.11997108 L27.4548526,7.46300277 C27.7608798,7.77339368 27.8001581,8.25859863 27.5480421,8.61417279 L26.2379077,10.4779719 C26.0547557,10.7397261 26.0397929,11.0838727 26.1995356,11.3605355 C26.553457,11.989667 26.843604,12.6526013 27.0656495,13.3394516 C27.2170235,13.7693557 27.6882406,13.9951483 28.1181424,13.8437737 C28.5480443,13.692399 28.7738358,13.2211795 28.6224619,12.7912754 C28.4188888,12.1689535 28.169708,11.5624884 27.8769461,10.9768122 L28.8910669,9.52962704 C29.6171107,8.51216421 29.4962796,7.11795205 28.6060167,6.24056985 L27.2794372,4.95235578 C26.4020595,4.06208833 25.0078545,3.94125661 23.9903969,4.66730416 L22.5432192,5.68143012 C21.8965988,5.34343753 21.2215879,5.06279298 20.5259411,4.84272054 L20.218964,3.10500199 C20.0056002,1.88600252 18.9458526,0.997475886 17.70833,1.00000539 L15.8390587,1.00000539 C14.6015362,0.997475886 13.5417885,1.88600252 13.3284247,3.10500199 L13.0214476,4.84272054 C12.3257815,5.06274 11.6507661,5.34338645 11.0041695,5.68143012 L9.56247356,4.66730416 C8.54501597,3.94125661 7.15081098,4.06208833 6.27343329,4.95235578 L4.95233545,6.29538747 C4.06207258,7.17276967 3.94124148,8.56698183 4.66728529,9.58444466 L5.68140604,11.0316298 C5.34480474,11.6694137 5.06418367,12.3352043 4.84270077,13.0215094 L3.10499116,13.3284881 C1.88599796,13.541853 0.997475899,14.6016061 1.00000539,15.8391351 L1.00000539,17.7413065 C0.997475899,18.9788354 1.88599796,20.0385886 3.10499116,20.2519535 L4.84270077,20.5589322 C5.06261286,21.2546406 5.34326167,21.9296687 5.68140604,22.5762206 L4.66728529,24.017924 C3.94124148,25.0353868 4.06207258,26.429599 4.95233545,27.3069812 L6.29536023,28.6445311 C7.17273791,29.5347985 8.5669429,29.6556303 9.5844005,28.9295827 L11.0315782,27.9154567 C11.6087516,28.2015853 12.2060162,28.4452559 12.8186234,28.6445311 C13.2530499,28.7760586 13.7118815,28.5306929 13.8437077,28.0963549 Z M52.9832869,31.9335883 L52.9832869,34.3455636 C52.9840376,35.8073315 51.934289,37.0582499 50.4945798,37.3111968 L48.1538794,37.7223289 C47.8603444,38.6818216 47.4748336,39.6107238 47.0027153,40.4961005 L48.3786305,42.4804983 C49.2074774,43.6727515 49.0668237,45.286818 48.0442448,46.3177317 L46.3394255,48.0499685 C45.3085171,49.0725528 43.6944589,49.2132071 42.5022119,48.384356 L40.5397512,47.0193973 C39.6543061,47.4913637 38.7254239,47.8768701 37.7659939,48.1705673 L37.3548639,50.5112797 C37.1019182,51.9509963 35.8510063,53.0007503 34.3892459,52.9999996 L31.977283,52.9999996 C30.5155226,53.0007503 29.2646107,51.9509963 29.011665,50.5112797 L28.600535,48.1705673 C27.6409661,47.8772566 26.7120472,47.491735 25.8267777,47.0193973 L23.8807622,48.3788742 C22.6885152,49.2077254 21.074457,49.067071 20.0435486,48.0444868 L18.3387294,46.334177 C17.3161504,45.3032633 17.1754967,43.6891968 18.0043436,42.4969436 L19.3254414,40.5344728 C18.8533231,39.6490961 18.4678123,38.7201939 18.1742773,37.7607013 L15.833577,37.3495691 C14.3938678,37.0966222 13.3441192,35.8457039 13.3448699,34.3839359 L13.3448699,31.9719606 C13.3418752,30.5093775 14.3926756,29.2572059 15.833577,29.0063274 L18.1742773,28.5951952 C18.4681428,27.637581 18.8536475,26.7105292 19.3254414,25.8269054 L17.9604897,23.8808799 C17.1293731,22.6892322 17.2701656,21.0735714 18.2948755,20.0436465 L19.9996947,18.3388186 C21.0306032,17.3162343 22.6446614,17.1755799 23.8369083,18.0044311 L25.8267777,19.3255357 C26.7120766,18.8532601 27.6409893,18.467741 28.600535,18.1743657 L29.011665,15.8336533 C29.2646107,14.3939367 30.5155226,13.3441827 31.977283,13.3449334 L34.3892459,13.3449334 C35.8510063,13.3441827 37.1019182,14.3939367 37.3548639,15.8336533 L37.7659939,18.1743657 C38.7235916,18.4682647 39.6506357,18.8537701 40.5342695,19.3255357 L42.480285,17.960577 C43.6719265,17.129456 45.2875791,17.2702493 46.3174986,18.2949645 L48.0223178,19.9997924 C49.0470277,21.0297173 49.1878202,22.6453781 48.3567036,23.8370258 L46.9917519,25.7830513 C47.4639321,26.6683988 47.8494454,27.5973071 48.142916,28.5568229 L50.4836163,28.967955 C51.9498602,29.209157 53.0194387,30.4861331 52.9997321,31.9719606 L52.9832869,31.9335883 Z M51.3387668,31.9335883 C51.3407434,31.2691486 50.8639868,30.699815 50.2095296,30.5850748 L47.3645098,30.0862345 C47.0689463,30.0308387 46.8271959,29.8185177 46.7341104,29.5325765 C46.4198113,28.3604364 45.9535646,27.2344355 45.3472317,26.18322 C45.187489,25.9065572 45.2024518,25.5624105 45.3856039,25.3006563 L47.030124,22.9325351 C47.4102601,22.3896724 47.3455286,21.6521924 46.8766355,21.183853 L45.1718162,19.479025 C44.7067727,19.0220037 43.9834333,18.9577065 43.4450701,19.3255357 L41.0769611,20.9700643 C40.8101171,21.1750501 40.4453064,21.1967651 40.1560298,21.0248819 C39.104877,20.4170938 37.9789313,19.9490223 36.8066905,19.6325144 C36.4975577,19.5498592 36.264454,19.2953686 36.2091815,18.9801847 L35.7103437,16.1351502 C35.5956042,15.4806896 35.0262735,15.0039306 34.3618372,15.0059073 L31.9498744,15.0059073 C31.2854381,15.0039306 30.7161074,15.4806896 30.6013678,16.1351502 L30.1025301,18.9801847 C30.0472576,19.2953686 29.8141539,19.5498592 29.5050211,19.6325144 C28.3330684,19.9473493 27.2071413,20.4135703 26.1556817,21.0194002 C25.8841798,21.1657323 25.5534035,21.1466489 25.3005313,20.9700643 L22.9324223,19.3255357 C22.3895624,18.9453977 21.6520861,19.0101295 21.1837492,19.479025 L19.47893,21.183853 C19.0100368,21.6521924 18.9453054,22.3896724 19.3254414,22.9325351 L20.9699616,25.3006563 C21.1531136,25.5624105 21.1680764,25.9065572 21.0083337,26.18322 C20.4023387,27.234602 19.9361107,28.3605574 19.6214551,29.5325765 C19.5388004,29.8417109 19.284311,30.0748158 18.9691287,30.1300886 L16.1241089,30.6289289 C15.4696517,30.7436691 14.9928951,31.3130027 14.9948717,31.9774424 L14.9948717,34.3894177 C14.9928951,35.0538573 15.4696517,35.6231909 16.1241089,35.7379311 L18.9691287,36.2367714 C19.284311,36.2920442 19.5388004,36.5251491 19.6214551,36.8342835 C19.9435434,37.9976484 20.4152579,39.1142907 21.0247789,40.1562313 C21.1892689,40.441505 21.1676995,40.7974015 20.9699616,41.060722 L19.3254414,43.4452885 C18.9453054,43.9881511 19.0100368,44.7256312 19.47893,45.1939705 L21.1837492,46.9042803 C21.6520861,47.3731758 22.3895624,47.4379076 22.9324223,47.0577696 L25.3005313,45.413241 C25.5622842,45.230088 25.906429,45.2151251 26.1830904,45.3748687 C27.2358576,45.9713592 28.3617523,46.4283532 29.5324298,46.7343456 C29.8415626,46.8170008 30.0746663,47.0714915 30.1299387,47.3866753 L30.6287765,50.2317098 C30.7435161,50.8861704 31.3128468,51.3629294 31.977283,51.3609528 L34.3892459,51.3609528 C35.0536821,51.3629294 35.6230128,50.8861704 35.7377524,50.2317098 L36.2365902,47.3866753 C36.2909848,47.0729451 36.5216182,46.8188201 36.8286174,46.7343456 C37.9935195,46.4141991 39.1119845,45.9443308 40.1560298,45.3364963 C40.4326912,45.1767528 40.7768361,45.1917157 41.038589,45.3748687 L43.406698,47.0193973 C43.9495579,47.3995353 44.6870341,47.3348035 45.155371,46.8659079 L46.8601903,45.1555982 C47.3154718,44.6985762 47.3886367,43.9852147 47.0356057,43.4452885 L45.3910856,41.0771673 C45.1861009,40.8103219 45.164386,40.4455093 45.3362683,40.1562313 C45.9445996,39.1124298 46.4144935,37.9938924 46.7341104,36.8288017 C46.8167651,36.5196673 47.0712545,36.2865624 47.3864367,36.2312897 L50.2314565,35.7324493 C50.8859138,35.6177092 51.3626704,35.0483756 51.3606937,34.3839359 L51.3387668,31.9335883 Z M40.5068608,33.1395759 C40.5246234,36.1137825 38.7458037,38.8047158 36.002447,39.953688 C33.2590904,41.1026602 30.093544,40.4825256 27.9864965,38.383353 C25.8794491,36.2841804 25.2474527,33.1209652 26.3861247,30.3733056 C27.5247967,27.6256461 30.2090275,25.83674 33.1832645,25.8433507 C37.2336637,25.849395 40.5148061,29.1330066 40.5178243,33.18343 L40.5068608,33.1395759 Z M37.127173,29.084589 C36.094711,28.0855731 34.6858552,27.4740595 33.135913,27.4825055 C29.9932839,27.4996304 27.4584127,30.0589827 27.4714765,33.2016475 C27.4845403,36.3443122 30.0406016,38.8825017 33.1832645,38.873499 C36.3232844,38.8674662 38.8672714,36.3234661 38.8733041,33.18343 L38.8623407,33.1395759 C38.8574515,32.4143378 38.7172134,31.7216422 38.4657328,31.0853037 L34.429942,35.8682052 C34.2170409,36.120717 33.9047462,36.2707869 33.5689117,36.2833028 C33.5572285,36.2857143 33.5431889,36.2857143 33.5268672,36.2857143 C33.2074535,36.2857143 32.9009633,36.1583129 32.6786611,35.9320144 L29.643921,32.8338184 C29.1982252,32.3788823 29.216953,31.6588702 29.6848988,31.2255173 C30.1505379,30.7922126 30.8911152,30.809238 31.3391427,31.2653558 L33.4613573,33.4308905 L37.127173,29.084589 Z" id="Combined-Shape"></path>
                        </g>
                    </g>
                </g>
            </g>
        </g>
    </g>
</svg>