<?xml version="1.0" encoding="UTF-8"?>
<svg width="16px" height="16px" viewBox="0 0 16 16" version="1.1" xmlns="http://www.w3.org/2000/svg" xmlns:xlink="http://www.w3.org/1999/xlink">
    <!-- Generator: Sketch 46.2 (44496) - http://www.bohemiancoding.com/sketch -->
    <title>location_icon</title>
    <desc>Created with Sketch.</desc>
    <defs></defs>
    <g id="Page-1" stroke="none" stroke-width="1" fill="none" fill-rule="evenodd">
        <g id="Large-desktop-green-parkomatica-b2b-(1200px-or-more)-work" transform="translate(-379.000000, -3994.000000)" fill="#FFFFFF">
            <g id="мы-на-карте+форма" transform="translate(0.000000, 3752.000000)">
                <g id="мы-на-карте" transform="translate(363.000000, 191.000000)">
                    <g id="контакт" transform="translate(16.000000, 48.000000)">
                        <g id="location" transform="translate(0.000000, 3.000000)">
                            <path d="M8,15.2857143 C8,15.2857143 3,8.9842203 3,6.14352815 C3,3.30283599 5.23857625,1 8,1 C10.7614237,1 13,3.30283599 13,6.14352815 C13,8.9842203 8,15.2857143 8,15.2857143 Z M8,8.14285714 C9.18346732,8.14285714 10.1428571,7.18346732 10.1428571,6 C10.1428571,4.81653268 9.18346732,3.85714286 8,3.85714286 C6.81653268,3.85714286 5.85714286,4.81653268 5.85714286,6 C5.85714286,7.18346732 6.81653268,8.14285714 8,8.14285714 Z" id="Combined-Shape"></path>
                        </g>
                    </g>
                </g>
            </g>
        </g>
    </g>
</svg>