<?xml version="1.0" encoding="UTF-8"?>
<svg width="16px" height="16px" viewBox="0 0 16 16" version="1.1" xmlns="http://www.w3.org/2000/svg" xmlns:xlink="http://www.w3.org/1999/xlink">
    <!-- Generator: Sketch 46.2 (44496) - http://www.bohemiancoding.com/sketch -->
    <title>mail_icon</title>
    <desc>Created with Sketch.</desc>
    <defs></defs>
    <g id="Page-1" stroke="none" stroke-width="1" fill="none" fill-rule="evenodd">
        <g id="Large-desktop-green-parkomatica-b2b-(1200px-or-more)-work" transform="translate(-379.000000, -4069.000000)" fill-rule="nonzero" fill="#FFFFFF">
            <g id="мы-на-карте+форма" transform="translate(0.000000, 3752.000000)">
                <g id="мы-на-карте" transform="translate(363.000000, 191.000000)">
                    <g id="контакт" transform="translate(16.000000, 48.000000)">
                        <g id="mail" transform="translate(0.000000, 78.000000)">
                            <g id="Group" transform="translate(1.000000, 4.000000)">
                                <path d="M0.636363636,0.0548590909 C0.590609091,0.0548590909 0.545125,0.0606818182 0.502122727,0.0697659091 L6.67685455,5.21535932 C6.82912045,5.34217068 7.17087955,5.34217068 7.32314545,5.21535932 L13.4978773,0.0697659091 C13.454875,0.0606818182 13.4093909,0.0548590909 13.3636364,0.0548590909 L0.636363636,0.0548590909 Z M0.0298295455,0.512245455 C0.0132045455,0.569203182 0,0.628750909 0,0.691225909 L0,7.6912275 C0,7.7537025 0.0132045455,7.81325023 0.0298295455,7.87020477 L4.60369318,4.32048886 L0.0298295455,0.512245455 Z M13.9701705,0.512245455 L9.39630682,4.32048886 L13.9701705,7.87020477 C13.9867955,7.81325023 14,7.7537025 14,7.6912275 L14,0.691225909 C14,0.628750909 13.9867955,0.569203182 13.9701705,0.512245455 L13.9701705,0.512245455 Z M5.10085227,4.7381025 L0.507102273,8.31266841 C0.548609091,8.32110023 0.592295455,8.32762295 0.636363636,8.32762295 L13.3636364,8.32762295 C13.4077045,8.32762295 13.4513909,8.32110023 13.4928977,8.31266841 L8.89914773,4.7381025 L7.73083182,5.70755477 C7.31084773,6.05726841 6.68915227,6.05726841 6.26916818,5.70755477 L5.10085227,4.7381025 L5.10085227,4.7381025 Z" id="Shape"></path>
                            </g>
                        </g>
                    </g>
                </g>
            </g>
        </g>
    </g>
</svg>