<?xml version="1.0" encoding="UTF-8"?>
<svg width="144px" height="144px" viewBox="0 0 144 144" version="1.1" xmlns="http://www.w3.org/2000/svg" xmlns:xlink="http://www.w3.org/1999/xlink">
    <!-- Generator: Sketch 46.2 (44496) - http://www.bohemiancoding.com/sketch -->
    <title>overpayment_gr_icon</title>
    <desc>Created with Sketch.</desc>
    <defs>
        <filter x="-2.2%" y="-6.6%" width="104.4%" height="116.2%" filterUnits="objectBoundingBox" id="filter-1">
            <feOffset dx="0" dy="2" in="SourceAlpha" result="shadowOffsetOuter1"></feOffset>
            <feGaussianBlur stdDeviation="2" in="shadowOffsetOuter1" result="shadowBlurOuter1"></feGaussianBlur>
            <feColorMatrix values="0 0 0 0 0   0 0 0 0 0   0 0 0 0 0  0 0 0 0.1 0" type="matrix" in="shadowBlurOuter1" result="shadowMatrixOuter1"></feColorMatrix>
            <feMerge>
                <feMergeNode in="shadowMatrixOuter1"></feMergeNode>
                <feMergeNode in="SourceGraphic"></feMergeNode>
            </feMerge>
        </filter>
        <path d="M18.2648863,0 C8.19434108,0 0,8.20459683 0,18.2836825 C0,28.3668317 8.19434108,36.5714286 18.2648863,36.5714286 C28.3313732,36.5714286 36.5257143,28.3668317 36.5257143,18.2836825 C36.5257143,8.20459683 28.3309674,0 18.2648863,0 Z" id="path-2"></path>
    </defs>
    <g id="Page-1" stroke="none" stroke-width="1" fill="none" fill-rule="evenodd">
        <g id="Large-desktop-green-parkomatica-b2b-(1200px-or-more)-work" transform="translate(-772.000000, -1270.000000)">
            <g id="2-part" transform="translate(0.000000, 800.000000)">
                <g id="Group-8" transform="translate(164.000000, 240.000000)">
                    <g id="2-дшту" transform="translate(0.000000, 232.000000)">
                        <g id="не-переплачивайте" filter="url(#filter-1)" transform="translate(612.000000, 0.000000)">
                            <g id="time_icon">
                                <g id="overpayment_gr_icon">
                                    <path d="M6,0 L136,0 L136,136 L6,136 L6,136 C2.6862915,136 4.05812251e-16,133.313708 0,130 L0,6 L0,6 C-4.05812251e-16,2.6862915 2.6862915,6.08718376e-16 6,0 Z" id="Rectangle-6" fill="#73BD4E"></path>
                                    <g id="overpayment_icon" transform="translate(21.000000, 20.000000)">
                                        <ellipse id="Oval-19" stroke="#FFFFFF" stroke-width="5.1652617" cx="46.6387411" cy="47.112605" rx="43.8604368" ry="44.5299742"></ellipse>
                                        <path d="M26.4527262,15.4152444 C26.7982626,16.0201702 27.4205997,16.3574965 28.0633718,16.3574965 C28.3773269,16.3574965 28.6968552,16.2764628 28.9903754,16.1049729 C29.8783669,15.5848497 30.1830334,14.4315332 29.6703019,13.5307402 L25.9548565,7.00281761 C25.4402673,6.10202461 24.3051988,5.78919691 23.4172073,6.31308908 C22.5292159,6.83321224 22.2245493,7.98652881 22.7372808,8.88732182 L26.4527262,15.4152444 Z" id="Shape" fill="#FFFFFF" fill-rule="nonzero"></path>
                                        <path d="M7.09897105,26.1305353 L13.5341225,29.8995437 C13.825785,30.0710335 14.1453133,30.1520672 14.4611261,30.1520672 C15.1038982,30.1520672 15.728093,29.814741 16.0717717,29.2098151 C16.5845032,28.3090221 16.2798367,27.1557055 15.3918452,26.6355824 L8.95669375,22.866574 C8.06684458,22.3464508 6.931776,22.6555095 6.41904454,23.5563025 C5.90631307,24.4570955 6.20912187,25.6104121 7.09897105,26.1305353 Z" id="Shape" fill="#FFFFFF" fill-rule="nonzero"></path>
                                        <path d="M93.0818088,47.112605 C93.0818088,38.57957 90.8209603,30.5760807 86.8955922,23.6637193 C82.7250047,16.4064936 76.9103326,10.5061109 69.9438725,6.38846924 C62.9402579,2.29155711 55.0505096,0 46.6387411,0 C45.6132782,0 44.7810184,0.848026891 44.7810184,1.88827321 L44.7810184,45.2281008 L2.05339618,45.2281008 C1.02793324,45.2281008 0.195673469,46.0723587 0.195673469,47.112605 C0.195673469,55.6437556 2.45466428,63.6472449 6.38003236,70.5558373 C6.44691038,70.7197892 6.48778028,70.7574793 6.52121929,70.8045919 C10.5803434,77.8469841 16.3857269,83.7285217 23.3354675,87.8386253 C30.3743788,91.9430755 38.2455499,94.2252101 46.6387411,94.2252101 C55.0319323,94.2252101 62.9031034,91.9430755 69.7042263,87.9780787 C76.8973286,83.7285217 82.7045698,77.8432151 86.7655516,70.7932848 C90.8209603,63.6510139 93.0818088,55.6475246 93.0818088,47.112605 Z" id="Shape" fill="#FFFFFF" fill-rule="nonzero"></path>
                                        <path d="M69.5816166,83.651257 L66.8266138,78.8118502 C66.3120246,77.9091727 65.1732406,77.600114 64.2889646,78.1221217 C63.3991154,78.6422448 63.0944489,79.7955614 63.6090381,80.6963544 L66.3677563,85.5432992 C60.9785027,88.4020921 54.9223267,90.1301825 48.4983216,90.4090891 L48.4983216,84.8026891 C48.4983216,83.7605583 47.6660618,82.9181849 46.6405989,82.9181849 C45.6151359,82.9181849 44.7828762,83.7605583 44.7828762,84.8026891 L44.7828762,90.4109736 C38.358871,90.1301825 32.2989796,88.4077456 26.909726,85.5489527 L29.6740174,80.6963544 C30.1867488,79.7955614 29.88394,78.6422448 28.9940909,78.1221217 C28.1060994,77.6019985 26.9691731,77.9091727 26.4564417,78.8118502 L23.6977234,83.655026 C18.4459413,80.2497269 13.9725451,75.7156098 10.6156401,70.3881164 L15.3937029,67.5915122 C16.2835521,67.071389 16.5863609,65.9180725 16.0736294,65.0172795 C15.5590403,64.1146019 14.4239717,63.8055433 13.5359802,64.3275509 L8.75048653,67.1298087 C5.93046347,61.6609775 4.22693174,55.5137248 3.95013106,48.9971092 L46.545855,48.9971092 C47.5824643,49.0461064 48.4964638,48.1830034 48.4964638,47.112605 L48.4964638,3.80858299 C54.920469,4.08748961 60.9803604,5.81746447 66.369614,8.67625734 L63.6071803,13.5307402 C63.0944489,14.4315332 63.3991154,15.5848497 64.2871069,16.1049729 C64.5787693,16.2764628 64.8982976,16.3574965 65.2141105,16.3574965 C65.8568825,16.3574965 66.4810774,16.0201702 66.8247561,15.4152444 L69.5834743,10.5682996 C74.8333987,13.9735987 79.3012218,18.5114848 82.6599844,23.8389782 L77.8856371,26.6355824 C76.9957879,27.1557055 76.6911214,28.3090221 77.2057106,29.2098151 C77.551247,29.814741 78.1735841,30.1520672 78.8163561,30.1520672 C79.132169,30.1520672 79.4516973,30.0710335 79.7433598,29.8995437 L84.5269957,27.0972859 C87.3451611,32.5623481 89.0431196,38.7114853 89.3199203,45.2281008 L83.7931953,45.2281008 C82.7658746,45.2281008 81.9354726,46.0723587 81.9354726,47.112605 C81.9354726,48.1528514 82.7658746,48.9971092 83.7931953,48.9971092 L89.3199203,48.9971092 C89.0449774,55.5137248 87.3414456,61.6572085 84.5232803,67.1222707 L79.7452175,64.3256664 C78.8553683,63.8074278 77.7202997,64.1164865 77.2075683,65.015395 C76.6948368,65.9180725 76.9995033,67.0695045 77.8874948,67.5896277 L82.6581267,70.3824629 C79.3012218,75.7118408 74.8315409,80.2459579 69.5816166,83.651257 Z" id="Path" stroke="#FFFFFF" stroke-width="1.29131542" fill="#73BD4E"></path>
                                        <g id="Group-7" transform="translate(56.457551, 58.775510)">
                                            <g id="Shape" fill-rule="nonzero">
                                                <use fill="#FFFFFF" fill-rule="evenodd" xlink:href="#path-2"></use>
                                                <path stroke="#FFFFFF" stroke-width="1" d="M18.2648863,-0.5 C28.6073882,-0.5 37.0257143,7.92873288 37.0257143,18.2836825 C37.0257143,28.6421878 28.6083013,37.0714286 18.2648863,37.0714286 C7.91805861,37.0714286 -0.5,28.6428342 -0.5,18.2836825 C-0.5,7.92794798 7.91870434,-0.5 18.2648863,-0.5 Z"></path>
                                            </g>
                                            <path d="M18.2649926,33.9591837 C9.6325531,33.9591837 2.60897959,26.9268197 2.60897959,18.2835761 C2.60897959,9.64460886 9.6325531,2.6122449 18.2649926,2.6122449 C26.8931612,2.6122449 33.9167347,9.64460886 33.9167347,18.2835761 C33.9167347,26.9268197 26.8931612,33.9591837 18.2649926,33.9591837 Z" id="Path" fill="#73BD4E"></path>
                                        </g>
                                        <g id="Group-16" transform="translate(68.197959, 67.918367)" fill-rule="nonzero" fill="#FFFFFF">
                                            <ellipse id="Oval" cx="6.52244898" cy="17.6326531" rx="1.95673469" ry="1.95918367"></ellipse>
                                            <path d="M4.93957682,12.776807 C4.93957682,10.6582079 6.87741429,9.04858151 8.77244481,7.75070094 C9.36186352,7.34670381 10.0121998,6.00905975 9.64834076,4.91158722 C9.28942099,3.82842955 7.86362044,3.18267034 6.69136872,3.18267034 C5.40551395,3.18267034 3.81177847,3.76003633 3.19107777,5.37602487 C2.87331852,6.19992454 1.92333363,6.61664599 1.07378041,6.31285287 C0.220934357,6.00746921 -0.213720776,5.09131823 0.104038469,4.26741856 C1.10012315,1.67642906 3.68500405,0 6.6897223,0 C9.07209343,0 11.9286338,1.35354946 12.7847727,3.9381768 C13.6145688,6.43532445 12.3369462,9.2076355 10.6773539,10.343281 C8.4727962,11.8527034 8.23406516,12.5445882 8.23406516,12.773626 C8.23077232,13.6563756 7.49482215,14.3673469 6.58599778,14.3673469 C5.67717341,14.3673469 4.93957682,13.6563756 4.93957682,12.776807 Z" id="Shape"></path>
                                        </g>
                                    </g>
                                </g>
                            </g>
                        </g>
                    </g>
                </g>
            </g>
        </g>
    </g>
</svg>