<?xml version="1.0" encoding="UTF-8"?>
<svg width="16px" height="16px" viewBox="0 0 16 16" version="1.1" xmlns="http://www.w3.org/2000/svg" xmlns:xlink="http://www.w3.org/1999/xlink">
    <!-- Generator: Sketch 46.2 (44496) - http://www.bohemiancoding.com/sketch -->
    <title>phone_icon</title>
    <desc>Created with Sketch.</desc>
    <defs></defs>
    <g id="Page-1" stroke="none" stroke-width="1" fill="none" fill-rule="evenodd">
        <g id="Large-desktop-green-parkomatica-b2b-(1200px-or-more)-work" transform="translate(-379.000000, -4040.000000)" fill-rule="nonzero" fill="#FFFFFF">
            <g id="мы-на-карте+форма" transform="translate(0.000000, 3752.000000)">
                <g id="мы-на-карте" transform="translate(363.000000, 191.000000)">
                    <g id="контакт" transform="translate(16.000000, 48.000000)">
                        <g id="phone" transform="translate(0.000000, 49.000000)">
                            <path d="M3.43553502,1.34544624 C3.34333114,1.32700546 3.23268647,1.32700546 3.15892336,1.36388701 C2.16312139,1.75114334 1.53613497,3.17108318 1.38860875,4.14844438 C0.927589318,7.32025806 3.43553502,10.0679339 5.74063218,11.87513 C7.78755845,13.4794777 11.715444,16.1165088 14.0389819,13.5716815 C14.3340344,13.2581883 14.6844091,12.7971689 14.6659684,12.3361495 C14.610646,11.5616368 13.8914557,11.0084135 13.3382324,10.5842756 C12.9140945,10.2707824 12.0289372,9.40406589 11.4757139,9.42250667 C10.9778129,9.44094745 10.6643197,9.95728921 10.3508265,10.2707824 L9.79760317,10.8240057 C9.70539929,10.9162096 8.52518954,10.141697 8.3961041,10.0494931 C7.91664389,9.73599988 7.45562446,9.38562511 7.04992736,8.99836879 C6.64423026,8.61111247 6.27541472,8.18697459 5.96192151,7.74439594 C5.86971762,7.6153105 5.11364575,6.49042309 5.18740886,6.3982192 C5.18740886,6.3982192 5.83283606,5.69746967 6.01724384,5.42085801 C6.40450016,4.83075313 6.69955259,4.3697337 6.25697394,3.66898417 C6.09100695,3.41081329 5.8881584,3.20796474 5.66686907,2.98667541 C5.27961275,2.61785987 4.89235643,2.23060354 4.44977777,1.91711033 C4.21004767,1.73270256 3.80435057,1.40076857 3.43553502,1.34544624 Z" id="Shape"></path>
                        </g>
                    </g>
                </g>
            </g>
        </g>
    </g>
</svg>