<?xml version="1.0" encoding="UTF-8"?>
<svg width="18px" height="31px" viewBox="0 0 18 31" version="1.1" xmlns="http://www.w3.org/2000/svg" xmlns:xlink="http://www.w3.org/1999/xlink">
    <!-- Generator: Sketch 46.2 (44496) - http://www.bohemiancoding.com/sketch -->
    <title>pin_onmap_icon</title>
    <desc>Created with Sketch.</desc>
    <defs>
        <circle id="path-1" cx="9" cy="25" r="4"></circle>
    </defs>
    <g id="Page-1" stroke="none" stroke-width="1" fill="none" fill-rule="evenodd">
        <g id="Large-desktop-green-parkomatica-b2b-(1200px-or-more)-work" transform="translate(-482.000000, -4132.000000)">
            <g id="мы-на-карте+форма" transform="translate(0.000000, 3752.000000)">
                <g id="мы-на-карте" transform="translate(363.000000, 191.000000)">
                    <g id="pin" transform="translate(119.000000, 189.000000)">
                        <g id="Oval-4">
                            <use fill="#73BD4E" fill-rule="evenodd" xlink:href="#path-1"></use>
                            <circle stroke="#529D2D" stroke-width="2" cx="9" cy="25" r="5"></circle>
                        </g>
                        <path d="M9,25 C9,25 0,13.9723855 0,9.00117426 C0,4.02996298 4.02943725,0 9,0 C13.9705627,0 18,4.02996298 18,9.00117426 C18,13.9723855 9,25 9,25 Z M9,13.0010438 C11.209139,13.0010438 13,11.2099491 13,9.00052189 C13,6.79109466 11.209139,5 9,5 C6.790861,5 5,6.79109466 5,9.00052189 C5,11.2099491 6.790861,13.0010438 9,13.0010438 Z" id="Combined-Shape" fill="#34363C"></path>
                    </g>
                </g>
            </g>
        </g>
    </g>
</svg>