<?xml version="1.0" encoding="UTF-8"?>
<svg width="37px" height="28px" viewBox="0 0 37 28" version="1.1" xmlns="http://www.w3.org/2000/svg" xmlns:xlink="http://www.w3.org/1999/xlink">
    <!-- Generator: Sketch 46.2 (44496) - http://www.bohemiancoding.com/sketch -->
    <title>quotation_mark_1</title>
    <desc>Created with Sketch.</desc>
    <defs></defs>
    <g id="Page-1" stroke="none" stroke-width="1" fill="none" fill-rule="evenodd" fill-opacity="0.4">
        <g id="Large-desktop-green-parkomatica-b2b-(1200px-or-more)-work" transform="translate(-451.000000, -2801.000000)" fill="#73BD4E">
            <g id="4-part" transform="translate(-171.000000, 2400.000000)">
                <g id="Group-11" transform="translate(0.000000, 285.000000)">
                    <g id="отзыв-1" transform="translate(606.000000, 0.000000)">
                        <g id="quotation_mark_1" transform="translate(16.000000, 116.000000)">
                            <path d="M36.6132812,4.84375 C31.8476324,7.18751172 29.4648438,9.94139043 29.4648438,13.1054688 C31.4961039,13.3398449 33.1757746,14.1699147 34.5039062,15.5957031 C35.8320379,17.0214915 36.4960938,18.6718656 36.4960938,20.546875 C36.4960938,22.5390725 35.8515689,24.2187432 34.5625,25.5859375 C33.2734311,26.9531318 31.6523535,27.6367188 29.6992188,27.6367188 C27.5117078,27.6367188 25.6171955,26.7480558 24.015625,24.9707031 C22.4140545,23.1933505 21.6132812,21.0351689 21.6132812,18.4960938 C21.6132812,10.8788682 25.8710512,4.92189648 34.3867188,0.625 L36.6132812,4.84375 Z M15.1679688,4.84375 C10.3632572,7.18751172 7.9609375,9.94139043 7.9609375,13.1054688 C10.0312604,13.3398449 11.7304621,14.1699147 13.0585938,15.5957031 C14.3867254,17.0214915 15.0507812,18.6718656 15.0507812,20.546875 C15.0507812,22.5390725 14.3964909,24.2187432 13.0878906,25.5859375 C11.7792903,26.9531318 10.1484473,27.6367188 8.1953125,27.6367188 C6.00780156,27.6367188 4.12305479,26.7480558 2.54101562,24.9707031 C0.958976465,23.1933505 0.16796875,21.0351689 0.16796875,18.4960938 C0.16796875,10.8788682 4.40620762,4.92189648 12.8828125,0.625 L15.1679688,4.84375 Z" id="“"></path>
                        </g>
                    </g>
                </g>
            </g>
        </g>
    </g>
</svg>