<?xml version="1.0" encoding="UTF-8"?>
<svg width="20px" height="36px" viewBox="0 0 20 36" version="1.1" xmlns="http://www.w3.org/2000/svg" xmlns:xlink="http://www.w3.org/1999/xlink">
    <!-- Generator: Sketch 46.2 (44496) - http://www.bohemiancoding.com/sketch -->
    <title>right</title>
    <desc>Created with Sketch.</desc>
    <defs></defs>
    <g id="Page-1" stroke="none" stroke-width="1" fill="none" fill-rule="evenodd" opacity="0.6">
        <g id="Large-desktop-green-parkomatica-b2b-(1200px-or-more)-work" transform="translate(-1256.000000, -410.000000)" stroke="#73BD4E" fill-rule="nonzero" fill="#73BD4E">
            <g id="1-part" transform="translate(-317.000000, 100.000000)">
                <g id="Group-13" transform="translate(982.000000, 64.000000)">
                    <g id="Group-12" transform="translate(19.000000, 0.000000)">
                        <g id="right" transform="translate(572.000000, 246.000000)">
                            <path d="M5.26070199,17.9470987 L18.4821964,4.14803289 C19.1726012,3.42746829 19.1726012,2.26018129 18.4821964,1.54007769 C17.7926751,0.819974102 16.6729207,0.819974102 15.9838411,1.54007769 L1.51758613,16.6382804 C0.829389944,17.35654 0.827181356,18.5205999 1.51272724,19.2411645 L15.9789822,34.4546206 C16.3239637,34.8178995 16.7789329,35 17.2330187,35 C17.6831291,35 18.1327977,34.8215877 18.4773375,34.464763 C19.1699509,33.7474254 19.1743681,32.5796774 18.4866136,31.8572688 L5.26070199,17.9470987 Z" id="Shape" transform="translate(10.000000, 18.000000) rotate(-180.000000) translate(-10.000000, -18.000000) "></path>
                        </g>
                    </g>
                </g>
            </g>
        </g>
    </g>
</svg>