<?xml version="1.0" encoding="UTF-8"?>
<svg width="90px" height="90px" viewBox="0 0 90 90" version="1.1" xmlns="http://www.w3.org/2000/svg" xmlns:xlink="http://www.w3.org/1999/xlink">
    <!-- Generator: Sketch 46.2 (44496) - http://www.bohemiancoding.com/sketch -->
    <title>send_icon</title>
    <desc>Created with Sketch.</desc>
    <defs></defs>
    <g id="Page-1" stroke="none" stroke-width="1" fill="none" fill-rule="evenodd">
        <g id="заполнение-формы-успешно" transform="translate(-962.000000, -189.000000)" fill-rule="nonzero" fill="#FFFFFF">
            <g id="мы-на-карте+форма">
                <g id="send_icon" transform="translate(962.000000, 189.000000)">
                    <path d="M45,0.3582 C20.182725,0.3582 0,20.3191121 0,44.8636945 C0,69.4082769 20.182725,89.369189 45,89.369189 C69.817275,89.369189 90,69.4082769 90,44.8636945 C90,20.3191121 69.817275,0.3582 45,0.3582 Z M45,6.29226593 C66.574644,6.29226593 84,23.5261187 84,44.8636945 C84,66.201211 66.574644,83.4351231 45,83.4351231 C23.425356,83.4351231 6,66.201211 6,44.8636945 C6,23.5261187 23.425356,6.29226593 45,6.29226593 Z" id="Shape"></path>
                    <path d="M66.84375,25.9797659 L35.90625,57.5044912 L23.0625,45.6363593 C22.2761418,44.9031976 21.1534223,44.6418496 20.1189733,44.9511617 C19.0845243,45.2604737 18.2962637,46.0932265 18.0523253,47.1344586 C17.8083869,48.1756907 18.1460101,49.2664487 18.9375,49.994189 L33.9375,63.8403429 C35.140322,64.9496786 37.0219486,64.8945394 38.15625,63.7167165 L71.15625,30.0903429 C72.0120067,29.2228465 72.2483286,27.9278318 71.7531868,26.8192037 C71.2580449,25.7105757 70.1309681,25.0111804 68.90625,25.0525681 C68.1226492,25.0831732 67.3823092,25.4159934 66.84375,25.9797659 Z" id="Path"></path>
                </g>
            </g>
        </g>
    </g>
</svg>