<?xml version="1.0" encoding="UTF-8"?>
<svg width="144px" height="144px" viewBox="0 0 144 144" version="1.1" xmlns="http://www.w3.org/2000/svg" xmlns:xlink="http://www.w3.org/1999/xlink">
    <!-- Generator: Sketch 46.2 (44496) - http://www.bohemiancoding.com/sketch -->
    <title>speed_gr_icon</title>
    <desc>Created with Sketch.</desc>
    <defs>
        <filter x="-2.2%" y="-6.6%" width="104.4%" height="116.2%" filterUnits="objectBoundingBox" id="filter-1">
            <feOffset dx="0" dy="2" in="SourceAlpha" result="shadowOffsetOuter1"></feOffset>
            <feGaussianBlur stdDeviation="2" in="shadowOffsetOuter1" result="shadowBlurOuter1"></feGaussianBlur>
            <feColorMatrix values="0 0 0 0 0   0 0 0 0 0   0 0 0 0 0  0 0 0 0.1 0" type="matrix" in="shadowBlurOuter1" result="shadowMatrixOuter1"></feColorMatrix>
            <feMerge>
                <feMergeNode in="shadowMatrixOuter1"></feMergeNode>
                <feMergeNode in="SourceGraphic"></feMergeNode>
            </feMerge>
        </filter>
        <path d="M31.245614,30.1497032 C31.0292398,29.8134611 30.380117,28.5805736 30.380117,28.5805736 C28.8654971,25.7785566 28,22.5282169 28,19.1657964 C28,8.63021243 36.3304094,0 46.5,0 C56.6695906,0 65,8.63021243 65,19.1657964 C65,22.4161362 64.1345029,25.6664759 62.619883,28.5805736 L62.2953216,29.2530577 C62.1871345,29.4772191 61.9707602,29.7013804 61.8625731,29.9255418 L61.754386,30.0376225 L54.8304094,41.3577713 L46.5,54 L31.245614,30.1497032 Z" id="path-2"></path>
    </defs>
    <g id="Page-1" stroke="none" stroke-width="1" fill="none" fill-rule="evenodd">
        <g id="Large-desktop-green-parkomatica-b2b-(1200px-or-more)-work" transform="translate(-160.000000, -1038.000000)">
            <g id="2-part" transform="translate(0.000000, 800.000000)">
                <g id="Group-8" transform="translate(164.000000, 240.000000)">
                    <g id="скорость" filter="url(#filter-1)">
                        <g id="speed_gr_icon">
                            <g id="time_icon" fill="#73BD4E">
                                <path d="M6,0 L136,0 L136,136 L6,136 L6,136 C2.6862915,136 4.05812251e-16,133.313708 0,130 L0,6 L0,6 C-4.05812251e-16,2.6862915 2.6862915,6.08718376e-16 6,0 Z" id="Rectangle-6"></path>
                            </g>
                            <g id="speed_icon" transform="translate(22.000000, 26.000000)">
                                <g id="Group" transform="translate(0.000000, 38.000000)" fill-rule="nonzero" fill="#FFFFFF">
                                    <path d="M92.5294699,36.2967149 C92.7463854,36.6273122 92.8548431,36.8477104 92.8548431,37.3987059 C92.8548431,38.6108959 91.8787234,39.3822896 90.6856883,39.3822896 L2.18416962,39.3822896 C1.42496542,39.3822896 0.77421896,39.1618914 0.340387986,38.6108959 C-0.0934429876,37.9497014 -0.0934429876,37.2885068 0.231930243,36.6273122 L18.1684076,0.812606335 C19.1025349,0.812606335 60.3175201,0.812606335 60.3175201,0.812606335 L73.2239916,0.812606335 C74.0916535,0.812606335 74.7424,1.03300452 75.1762309,1.80439819 L92.5294699,36.2967149 Z M5.76327516,34.9743258 L87.2150405,34.9743258 L71.9224986,5.22057014 L57.4976188,5.22057014 L48.3871683,19.8770498 C48.0617951,20.5382443 47.4110486,20.6484434 46.5433867,20.6484434 C45.7841825,20.6484434 45.133436,20.5382443 44.699605,19.8770498 L35.4806969,5.22057014 L21.055817,5.22057014 L5.76327516,34.9743258 Z" id="Combined-Shape"></path>
                                </g>
                                <g id="Path">
                                    <use fill="#73BD4E" fill-rule="evenodd" xlink:href="#path-2"></use>
                                    <path stroke="#FFFFFF" stroke-width="4.5" d="M29.3515063,31.3641422 C29.2340308,31.1812262 29.0807037,30.9111075 28.8729843,30.5309296 C28.8600917,30.5073226 28.8600917,30.5073226 28.8472381,30.4837469 C28.7448902,30.2959457 28.6375037,30.0961905 28.5312087,29.8966369 C28.4674699,29.7769765 28.4184502,29.6843372 28.4007821,29.6504958 C26.6786904,26.4646599 25.75,22.840701 25.75,19.1657964 C25.75,7.40502398 35.0696202,-2.25 46.5,-2.25 C57.9303798,-2.25 67.25,7.40502398 67.25,19.1657964 C67.25,22.7228745 66.3258412,26.3291504 64.6462258,29.5585487 L64.3216644,30.2310327 C64.197752,30.4877765 64.1045848,30.6281694 63.9014834,30.9087173 C63.8611638,30.9644115 63.8551594,30.9734594 63.8889158,30.9035168 L63.73206,31.2285186 L63.5447922,31.422526 L56.7091997,42.5957724 L46.4718831,58.1319235 L29.3515063,31.3641422 Z"></path>
                                    <use stroke="#73BD4E" stroke-width="1" xlink:href="#path-2"></use>
                                </g>
                                <path d="M54.5336,17.5424 C54.5336,19.347209 53.9096062,20.9023935 52.6616,22.208 C51.4135938,23.5136065 49.887209,24.1664 48.0824,24.1664 L43.82,24.1664 L43.82,30.9056 C43.82,31.7504042 43.3784044,32.1728 42.4952,32.1728 C42.1495983,32.1728 41.8520012,32.0384013 41.6024,31.7696 C41.3527988,31.5007987 41.228,31.1936017 41.228,30.848 L41.228,12.3584 C41.228,11.4367954 41.6503958,10.976 42.4952,10.976 L47.7368,10.976 C49.73361,10.976 51.3655937,11.575994 52.6328,12.776 C53.9000063,13.976006 54.5336,15.5647901 54.5336,17.5424 Z M43.82,13.2224 L43.82,21.92 L47.5064,21.92 C48.8120065,21.92 49.8775959,21.5072041 50.7032,20.6816 C51.5288041,19.8559959 51.9416,18.7904065 51.9416,17.4848 C51.9416,16.1983936 51.543204,15.1664039 50.7464,14.3888 C49.949596,13.6111961 48.9080064,13.2224 47.6216,13.2224 L43.82,13.2224 Z" id="P" stroke="#FFFFFF" stroke-width="3" fill="#FFFFFF"></path>
                            </g>
                        </g>
                    </g>
                </g>
            </g>
        </g>
    </g>
</svg>