<?xml version="1.0" encoding="UTF-8"?>
<svg width="85px" height="93px" viewBox="0 0 85 93" version="1.1" xmlns="http://www.w3.org/2000/svg" xmlns:xlink="http://www.w3.org/1999/xlink">
    <!-- Generator: Sketch 46.2 (44496) - http://www.bohemiancoding.com/sketch -->
    <title>time_icon</title>
    <desc>Created with Sketch.</desc>
    <defs>
        <filter x="-2.2%" y="-6.6%" width="104.4%" height="116.2%" filterUnits="objectBoundingBox" id="filter-1">
            <feOffset dx="0" dy="2" in="SourceAlpha" result="shadowOffsetOuter1"></feOffset>
            <feGaussianBlur stdDeviation="2" in="shadowOffsetOuter1" result="shadowBlurOuter1"></feGaussianBlur>
            <feColorMatrix values="0 0 0 0 0   0 0 0 0 0   0 0 0 0 0  0 0 0 0.1 0" type="matrix" in="shadowBlurOuter1" result="shadowMatrixOuter1"></feColorMatrix>
            <feMerge>
                <feMergeNode in="shadowMatrixOuter1"></feMergeNode>
                <feMergeNode in="SourceGraphic"></feMergeNode>
            </feMerge>
        </filter>
        <path d="M19.9351211,0 C8.90435409,0 0,8.67733666 0,19.4268731 C0,30.1764096 8.90435409,38.8537463 19.9351211,38.8537463 C30.9658881,38.8537463 39.8702422,30.1764096 39.8702422,19.4268731 C39.8702422,8.67733666 30.9658881,0 19.9351211,0 L19.9351211,0 Z" id="path-2"></path>
    </defs>
    <g id="Page-1" stroke="none" stroke-width="1" fill="none" fill-rule="evenodd">
        <g id="Large-desktop-green-parkomatica-b2b-(1200px-or-more)-work" transform="translate(-802.000000, -1059.000000)">
            <g id="2-part" transform="translate(0.000000, 800.000000)">
                <g id="Group-8" transform="translate(164.000000, 240.000000)">
                    <g id="учет-времени" filter="url(#filter-1)" transform="translate(612.000000, 0.000000)">
                        <g id="time_icon" transform="translate(26.000000, 19.000000)">
                            <g id="car" transform="translate(0.000000, 31.794118)">
                                <path d="M83.2839394,17.9205756 C83.2839394,13.978049 80.0250027,10.7523454 76.0418577,10.7523454 L72.4208169,10.7523454 C68.7997761,0 65.1787352,0 61.5576944,0 L50.6945718,0 L32.5893676,0 L21.7262451,0 C18.1052042,0 14.4841634,0 10.8631225,10.7523454 L7.24208169,10.7523454 C3.25893676,10.7523454 0,13.978049 0,17.9205756 C0,20.5489267 1.44841634,22.9383368 3.74174221,24.1330418 C1.44841634,26.1640404 0,29.0313325 0,32.2570361 L0,43.0093814 C0,45.1598505 1.32771498,46.8324375 3.62104084,48.1466131 L3.62104084,57.3458419 C3.62104084,59.3768404 5.19015854,60.929957 7.24208169,60.929957 L14.4841634,60.929957 C16.5360865,60.929957 18.1052042,59.3768404 18.1052042,57.3458419 L18.1052042,52.3280807 C28.0027159,53.7617268 38.8658384,53.7617268 41.6419697,53.7617268 C44.418101,53.7617268 55.2812236,53.7617268 65.1787352,52.3280807 L65.1787352,57.3458419 C65.1787352,59.3768404 66.7478529,60.929957 68.7997761,60.929957 L76.0418577,60.929957 C78.0937809,60.929957 79.6628986,59.3768404 79.6628986,57.3458419 L79.6628986,48.1466131 C81.9562245,46.8324375 83.2839394,45.1598505 83.2839394,43.0093814 L83.2839394,32.2570361 C83.2839394,29.0313325 81.8355231,26.1640404 79.5421972,24.1330418 C81.8355231,22.9383368 83.2839394,20.5489267 83.2839394,17.9205756 Z M14.2427607,11.8275799 C14.9669688,9.67711082 16.5360865,5.61511368 18.4673083,4.18146764 C19.4329192,3.46464461 20.6399328,3.58411512 21.7262451,3.58411512 L61.5576944,3.58411512 C62.6440066,3.58411512 63.8510202,3.46464461 64.8166311,4.18146764 C66.7478529,5.61511368 68.3169706,9.67711082 69.0411788,11.8275799 L72.3001155,21.5046907 L65.1787352,21.5046907 L18.1052042,21.5046907 L11.1045253,21.5046907 L14.2427607,11.8275799 Z M14.4841634,57.3458419 L7.24208169,57.3458419 L7.24208169,49.8192001 C9.4147062,50.5360232 11.8287334,51.2528462 14.4841634,51.7307282 L14.4841634,57.3458419 Z M76.0418577,57.3458419 L68.7997761,57.3458419 L68.7997761,51.7307282 C71.455206,51.2528462 73.8692332,50.6554937 76.0418577,49.8192001 L76.0418577,57.3458419 Z" id="Shape" fill="#FFFFFF" fill-rule="nonzero"></path>
                                <path d="M76.0418577,21.5046907 L73.6278305,14.3364605 L76.0418577,14.3364605 C78.0937809,14.3364605 79.6628986,15.889577 79.6628986,17.9205756 C79.6628986,19.9515742 78.0937809,21.5046907 76.0418577,21.5046907 Z" id="Path" fill="#73BD4E"></path>
                                <path d="M3.62104084,17.9205756 C3.62104084,15.889577 5.19015854,14.3364605 7.24208169,14.3364605 L9.65610892,14.3364605 L7.24208169,21.5046907 C5.19015854,21.5046907 3.62104084,19.9515742 3.62104084,17.9205756 Z" id="Path" fill="#73BD4E"></path>
                                <path d="M79.6628986,32.2570361 L79.6628986,43.0093814 L79.6628986,43.3677929 C79.1800931,44.801439 75.9211564,46.1156145 74.7141428,46.5934965 C70.8516992,48.0271426 66.3857488,48.7439656 62.2819025,49.2218476 C55.4019249,49.9386706 48.5219473,50.1776116 41.6419697,50.1776116 C34.7619921,50.1776116 27.8820145,49.9386706 21.0020369,49.1023771 C16.8981906,48.6244951 12.4322402,47.9076721 8.56979667,46.474026 C7.36278305,45.996144 4.10384629,44.6819685 3.62104084,43.2483224 L3.62104084,42.8899109 L3.62104084,32.1375656 C3.62104084,28.1950389 6.87997761,24.9693353 10.8631225,24.9693353 L18.1052042,24.9693353 L65.1787352,24.9693353 L72.4208169,24.9693353 C76.4039618,25.0888058 79.6628986,28.3145094 79.6628986,32.2570361 Z" id="Path" fill="#73BD4E"></path>
                                <path d="M52.5050922,39.4252663 L30.7788472,39.4252663 C29.8132363,39.4252663 28.9683268,40.2615598 28.9683268,41.2173239 C28.9683268,42.1730879 29.8132363,43.0093814 30.7788472,43.0093814 L52.5050922,43.0093814 C53.4707031,43.0093814 54.3156127,42.1730879 54.3156127,41.2173239 C54.3156127,40.2615598 53.4707031,39.4252663 52.5050922,39.4252663 Z" id="Shape" fill="#FFFFFF" fill-rule="nonzero"></path>
                                <path d="M56.1261331,32.2570361 L27.1578063,32.2570361 C26.1921954,32.2570361 25.3472859,33.0933296 25.3472859,34.0490936 C25.3472859,35.0048576 26.1921954,35.8411512 27.1578063,35.8411512 L56.1261331,35.8411512 C57.091744,35.8411512 57.9366535,35.0048576 57.9366535,34.0490936 C57.9366535,33.0933296 57.091744,32.2570361 56.1261331,32.2570361 Z" id="Shape" fill="#FFFFFF" fill-rule="nonzero"></path>
                                <path d="M14.4841634,28.6729209 C10.5010184,28.6729209 7.24208169,31.8986245 7.24208169,35.8411512 C7.24208169,39.7836778 10.5010184,43.0093814 14.4841634,43.0093814 C18.4673083,43.0093814 21.7262451,39.7836778 21.7262451,35.8411512 C21.7262451,31.8986245 18.4673083,28.6729209 14.4841634,28.6729209 Z M14.4841634,39.4252663 C12.4322402,39.4252663 10.8631225,37.8721497 10.8631225,35.8411512 C10.8631225,33.8101526 12.4322402,32.2570361 14.4841634,32.2570361 C16.5360865,32.2570361 18.1052042,33.8101526 18.1052042,35.8411512 C18.1052042,37.8721497 16.5360865,39.4252663 14.4841634,39.4252663 Z" id="Shape" fill="#FFFFFF" fill-rule="nonzero"></path>
                                <path d="M68.7997761,28.6729209 C64.8166311,28.6729209 61.5576944,31.8986245 61.5576944,35.8411512 C61.5576944,39.7836778 64.8166311,43.0093814 68.7997761,43.0093814 C72.782921,43.0093814 76.0418577,39.7836778 76.0418577,35.8411512 C76.0418577,31.8986245 72.782921,28.6729209 68.7997761,28.6729209 Z M68.7997761,39.4252663 C66.7478529,39.4252663 65.1787352,37.8721497 65.1787352,35.8411512 C65.1787352,33.8101526 66.7478529,32.2570361 68.7997761,32.2570361 C70.8516992,32.2570361 72.4208169,33.8101526 72.4208169,35.8411512 C72.4208169,37.8721497 70.8516992,39.4252663 68.7997761,39.4252663 Z" id="Shape" fill="#FFFFFF" fill-rule="nonzero"></path>
                            </g>
                            <g id="time" transform="translate(40.687500, 4.000000)">
                                <g id="Path">
                                    <use fill="#73BD4E" fill-rule="evenodd" xlink:href="#path-2"></use>
                                    <path stroke="#FFFFFF" stroke-width="3.58722793" d="M19.9351211,-1.79361397 C31.9462549,-1.79361397 41.6638562,7.67623605 41.6638562,19.4268731 C41.6638562,31.1775102 31.9462549,40.6473602 19.9351211,40.6473602 C7.9239873,40.6473602 -1.79361397,31.1775102 -1.79361397,19.4268731 C-1.79361397,7.67623605 7.9239873,-1.79361397 19.9351211,-1.79361397 Z"></path>
                                </g>
                                <path d="M27.5990677,18.9951648 L20.7768262,18.9951648 L20.7768262,11.4834406 C20.7768262,10.5336823 19.9794214,9.75660739 19.0048154,9.75660739 C18.0302095,9.75660739 17.2328047,10.5336823 17.2328047,11.4834406 L17.2328047,19.8585814 C17.2328047,20.0312647 17.277105,20.1607772 17.277105,20.2902897 C17.2328047,20.4198022 17.2328047,20.5924855 17.2328047,20.721998 C17.2328047,21.6717562 18.0302095,22.4488312 19.0048154,22.4488312 L27.5990677,22.4488312 C28.5736736,22.4488312 29.3710784,21.6717562 29.3710784,20.721998 C29.3710784,19.7722398 28.5736736,18.9951648 27.5990677,18.9951648 Z" id="Shape" stroke="#FFFFFF" stroke-width="0.661420032" fill="#FFFFFF" fill-rule="nonzero"></path>
                            </g>
                        </g>
                    </g>
                </g>
            </g>
        </g>
    </g>
</svg>